<?xml version="1.0" encoding="UTF-8"?>
<svg width="36px" height="36px" viewBox="0 0 36 36" version="1.1" xmlns="http://www.w3.org/2000/svg" xmlns:xlink="http://www.w3.org/1999/xlink">
    <!-- Generator: Sketch 47.1 (45422) - http://www.bohemiancoding.com/sketch -->
    <title>code_hover</title>
    <desc>Created with Sketch.</desc>
    <defs>
        <path d="M0.846728932,-5.68434189e-14 L31.9950934,-5.68434189e-14 C34.2069422,-5.68434189e-14 36,1.78855334 36,3.99536694 L36,35.1532711 L0.846728932,-5.68434189e-14 L0.846728932,-5.68434189e-14 Z" id="path-1"></path>
    </defs>
    <g id="Page-1" stroke="none" stroke-width="1" fill="none" fill-rule="evenodd">
        <g id="Artboard" transform="translate(-112.000000, -107.000000)">
            <g id="code_hover" transform="translate(112.000000, 107.000000)">
                <mask id="mask-2" fill="white">
                    <use xlink:href="#path-1"></use>
                </mask>
                <use id="Mask" fill-opacity="0" fill="#FFFFFF" xlink:href="#path-1"></use>
                <path d="M17.4413745,17.6746889 L16.8783179,18.2377453 C16.8032433,18.3128198 16.7169084,18.3503566 16.619313,18.3503566 C16.521715,18.3503566 16.4353801,18.3128198 16.3603055,18.2377453 L11.1126115,12.9900518 C11.0375368,12.9149773 11,12.8286423 11,12.7310444 C11,12.6334465 11.0375368,12.547114 11.1126115,12.4720395 L16.3603055,7.22434323 C16.4353801,7.14926869 16.521715,7.11173393 16.619313,7.11173393 C16.7169084,7.11173393 16.8032433,7.14926869 16.8783179,7.22434323 L17.4413745,7.78740234 C17.516449,7.86247689 17.5539863,7.94881186 17.5539863,8.04640726 C17.5539863,8.14400518 17.516449,8.23034015 17.4413745,8.3054147 L13.015745,12.7310444 L17.4413745,17.1566741 C17.516449,17.2317486 17.5539863,17.3180836 17.5539863,17.4156815 C17.5539863,17.5132794 17.516449,17.5996144 17.4413745,17.6746889 L17.4413745,17.6746889 Z M24.0967122,5.65904573 L19.8963061,20.1971847 C19.8662758,20.2947817 19.8080944,20.3679784 19.7217569,20.4167769 C19.6354219,20.4655755 19.5472102,20.4749597 19.4571218,20.4449298 L18.75893,20.2534903 C18.6613321,20.2234605 18.5881368,20.1652784 18.5393366,20.0789426 C18.4905389,19.9926066 18.4811552,19.9006415 18.5111855,19.8030445 L22.7115915,5.26490562 C22.7416219,5.1673077 22.7998033,5.09410989 22.8861408,5.04531219 C22.9724757,4.99651449 23.0606874,4.9871308 23.1507759,5.0171586 L23.8489677,5.20859845 C23.9465656,5.23862877 24.0197609,5.29681016 24.0685611,5.38314765 C24.1173588,5.46948263 24.1267425,5.56144781 24.0967122,5.65904573 L24.0967122,5.65904573 Z M31.4952858,12.9900518 L26.2475921,18.2377453 C26.1725176,18.3128198 26.0861826,18.3503566 25.9885847,18.3503566 C25.8909893,18.3503566 25.8046543,18.3128198 25.7295798,18.2377453 L25.1665207,17.6746889 C25.0914461,17.5996144 25.0539114,17.5132794 25.0539114,17.4156815 C25.0539114,17.3180836 25.0914461,17.2317486 25.1665207,17.1566741 L29.5921529,12.7310444 L25.1665207,8.3054147 C25.0914461,8.23034015 25.0539114,8.14400518 25.0539114,8.04640726 C25.0539114,7.94881186 25.0914461,7.86247689 25.1665207,7.78740234 L25.7295798,7.22434323 C25.8046543,7.14926869 25.8909893,7.11173393 25.9885847,7.11173393 C26.0861826,7.11173393 26.1725176,7.14926869 26.2475921,7.22434323 L31.4952858,12.4720395 C31.5703604,12.547114 31.6078977,12.6334465 31.6078977,12.7310444 C31.6078977,12.8286423 31.5703604,12.9149773 31.4952858,12.9900518 L31.4952858,12.9900518 Z" id="Page-1" fill="#FFFFFF" opacity="0.699999988" mask="url(#mask-2)"></path>
                <polygon id="Path-976" fill="#FFFFFF" opacity="0.200000003" points="0 0 36 36 0 36"></polygon>
            </g>
        </g>
    </g>
</svg>