<?xml version="1.0" encoding="UTF-8"?>
<svg width="20px" height="20px" viewBox="0 0 20 20" version="1.1" xmlns="http://www.w3.org/2000/svg" xmlns:xlink="http://www.w3.org/1999/xlink">
    <!-- Generator: Sketch 47.1 (45422) - http://www.bohemiancoding.com/sketch -->
    <title>deepin</title>
    <desc>Created with Sketch.</desc>
    <defs></defs>
    <g id="Page-1" stroke="none" stroke-width="1" fill="none" fill-rule="evenodd">
        <g id="安装器15" transform="translate(-539.000000, -635.000000)" fill="#FFFFFF">
            <g id="ISO安装器11-Copy-2" transform="translate(7.000000, 6.000000)">
                <g id="Group" transform="translate(513.000000, 321.000000)">
                    <g id="Group-16" transform="translate(0.000000, 264.000000)">
                        <g id="Group-5" transform="translate(19.000000, 44.000000)">
                            <path d="M10,18.0003461 C5.58170726,18.0003461 2,14.4186389 2,10.0003461 C2,5.58205339 5.58170726,2 10,2 C14.4182927,2 18,5.58205339 18,10.0003461 C18,14.4186389 14.4182927,18.0003461 10,18.0003461 Z M3.79309072,12.9400299 C4.66646113,14.9131873 6.38593634,16.3991527 8.46943674,16.8965823 C10.2622971,16.450341 12.5099714,15.1766563 13.5469356,13.0586663 C13.5469356,13.0586663 15.5608217,9.63417081 12.1534878,6.55173348 C12.1534878,6.55173348 13.0297588,7.98139182 13.0564443,9.42068561 C13.0564443,9.42068561 13.2641272,11.3128451 11.6522642,12.4943908 C9.16703085,14.31579 5.2312078,13.3751302 3.79309072,12.9400299 Z M4.4827473,5.64940362 C4.90867538,7.91488293 5.86350317,9.82590757 6.49859236,10.5205555 C7.31944003,11.4184281 8.52847901,12.3715635 10.0797816,11.977593 C11.6316693,11.5836224 11.9473125,9.86096679 11.9473125,9.86096679 C12.2901612,8.39501598 11.8022161,6.65423654 11.7758881,6.61769176 C11.7495601,6.58084986 11.5167038,6.5398484 11.5167038,6.5398484 C11.7600913,8.84840896 11.1621538,9.86988016 11.1621538,9.86988016 C10.2921606,11.6798867 9.01554649,11.1201276 9.01554649,11.1201276 C7.59500613,10.3850724 7.6619962,8.31271595 7.6619962,8.31271595 C7.61870131,6.87201966 8.18065725,4.49007243 9.2609817,3.10345054 C7.33757707,3.26002858 5.63679008,4.21851203 4.4827473,5.64940362 Z M12.8303501,3.79310713 C11.948506,4.49472011 10.4482824,5.99295615 10.4482824,5.99295615 C8.22267599,8.01161607 8.65442186,9.71144404 8.65442186,9.71144404 C9.00902582,11.4956239 10.1126529,10.2936854 10.1126529,10.2936854 C11.2728921,9.11976261 11.1864186,6.78166172 11.1864186,6.78166172 C10.7167238,6.85657352 10.4193542,7.1105428 10.4193542,7.1105428 C10.3618088,8.66907371 9.42179727,9.63622772 9.42179727,9.63622772 C9.05723952,10.030885 8.79844084,9.65510793 8.79844084,9.65510793 C8.60683028,9.37312285 8.9900514,9.17609872 8.9900514,9.17609872 C9.52693423,8.71596972 9.6880613,7.93091839 9.68121806,7.63644801 C9.67344166,7.34106408 9.83425766,7.26067092 9.83425766,7.26067092 C10.5919903,6.68756518 11.3500341,6.34954851 11.3500341,6.34954851 C12.3665654,5.84252351 14.1794004,5.75786708 14.1794004,5.75786708 C14.6711801,5.77400662 15.1411859,5.75025409 15.5172527,5.71797503 C14.7893814,4.89029096 13.8714548,4.22704745 12.8303501,3.79310713 Z" id="deepin"></path>
                        </g>
                    </g>
                </g>
            </g>
        </g>
    </g>
</svg>