<?xml version="1.0" encoding="UTF-8" standalone="no"?>
<svg width="32px" height="32px" viewBox="0 0 32 32" version="1.1" xmlns="http://www.w3.org/2000/svg" xmlns:xlink="http://www.w3.org/1999/xlink">
    <!-- Generator: Sketch 3.8.3 (29802) - http://www.bohemiancoding.com/sketch -->
    <title>drive-harddisk-deepin-32px</title>
    <desc>Created with Sketch.</desc>
    <defs>
        <filter x="-50%" y="-50%" width="200%" height="200%" filterUnits="objectBoundingBox" id="filter-1">
            <feOffset dx="0" dy="1" in="SourceAlpha" result="shadowOffsetOuter1"></feOffset>
            <feGaussianBlur stdDeviation="0.5" in="shadowOffsetOuter1" result="shadowBlurOuter1"></feGaussianBlur>
            <feColorMatrix values="0 0 0 0 0   0 0 0 0 0   0 0 0 0 0  0 0 0 0.2 0" type="matrix" in="shadowBlurOuter1" result="shadowMatrixOuter1"></feColorMatrix>
            <feMerge>
                <feMergeNode in="shadowMatrixOuter1"></feMergeNode>
                <feMergeNode in="SourceGraphic"></feMergeNode>
            </feMerge>
        </filter>
        <linearGradient x1="50%" y1="0.410554847%" x2="50%" y2="100%" id="linearGradient-2">
            <stop stop-color="#9DDA00" offset="0%"></stop>
            <stop stop-color="#73C300" offset="100%"></stop>
        </linearGradient>
    </defs>
    <g id="Page-1" stroke="none" stroke-width="1" fill="none" fill-rule="evenodd">
        <g id="drive-harddisk-deepin-32px">
            <g id="Group-2" filter="url(#filter-1)" transform="translate(5.000000, 3.000000)">
                <path d="M9.93406957e-09,1.00307054 C9.93406957e-09,0.449089968 0.439458363,-1.38311407e-08 1.00246171,-1.38311407e-08 L20.9975389,-1.38311407e-08 C21.5511832,-1.38311407e-08 22.0000006,0.438917742 22.0000006,1.00307054 L22,23 L9.93406957e-09,23 L9.93406957e-09,1.00307054 Z" id="Rectangle-1" fill="url(#linearGradient-2)"></path>
                <path d="M11,14.25 C10.6575385,14.25 10.3223462,14.2168846 9.99846154,14.1538846 C11.3602308,13.7726538 12.9780385,12.8308846 13.7469615,11.3188846 C13.7469615,11.3188846 15.3235769,8.73507692 12.6557692,6.40973077 C12.6557692,6.40973077 13.3415,7.48880769 13.3625,8.57434615 C13.3625,8.57434615 13.5256538,10.0015385 12.2632308,10.8932308 C10.4015,12.2073462 7.50107692,11.6153077 6.26692308,11.2744615 C5.93576923,10.5863077 5.75,9.81496154 5.75,9 C5.75,7.78038462 6.16596154,6.6585 6.86380769,5.76680769 C7.20788462,7.42823077 7.91865385,8.81584615 8.39680769,9.33115385 C9.03407692,10.0168846 9.97261538,10.7454231 11.1776923,10.4449615 C12.3819615,10.1436923 12.6275,8.82634615 12.6275,8.82634615 C12.8940385,7.70607692 12.5144231,6.375 12.4942308,6.34673077 C12.4740385,6.31846154 12.2931154,6.28776923 12.2931154,6.28776923 C12.4821154,8.05257692 12.0176923,8.83361538 12.0176923,8.83361538 C11.3424615,10.2171923 10.3506154,9.78911538 10.3506154,9.78911538 C9.24811538,9.22696154 9.29980769,7.64307692 9.29980769,7.64307692 C9.2675,6.58096154 9.67215385,4.85088462 10.4523846,3.77826923 C10.6325,3.75969231 10.8150385,3.75 11,3.75 C11.7026923,3.75 12.3730769,3.88811538 12.9861154,4.13930769 C12.3351154,4.68611538 11.3319615,5.70946154 11.3319615,5.70946154 C9.70688462,7.21580769 10.0218846,8.48307692 10.0218846,8.48307692 C10.2803462,9.81415385 11.0864231,8.91761538 11.0864231,8.91761538 C11.9336923,8.04207692 11.8706923,6.29826923 11.8706923,6.29826923 C11.5274231,6.354 11.3101538,6.543 11.3101538,6.543 C11.2681538,7.70607692 10.5816154,8.42734615 10.5816154,8.42734615 C10.3158846,8.72134615 10.1268846,8.44107692 10.1268846,8.44107692 C9.98715385,8.23107692 10.2666154,8.08407692 10.2666154,8.08407692 C10.6591538,7.74080769 10.7762692,7.15523077 10.7714231,6.93553846 C10.7657692,6.71503846 10.8828846,6.65526923 10.8828846,6.65526923 C11.4369615,6.228 11.9902308,5.976 11.9902308,5.976 C12.7325,5.59719231 14.0563077,5.53419231 14.0563077,5.53419231 C14.3696923,5.54469231 14.6701538,5.53257692 14.9245769,5.51319231 C15.7492308,6.44042308 16.25,7.66165385 16.25,9 C16.25,11.8996154 13.8996154,14.25 11,14.25 M5,9 C5,12.3137143 7.68628571,15 11,15 C14.3137143,15 17,12.3137143 17,9 C17,5.68628571 14.3137143,3 11,3 C7.68628571,3 5,5.68628571 5,9 Z" id="Page-1" fill="#FFFFFF"></path>
                <path d="M9.93406957e-09,20.0093689 C9.93406957e-09,19.4519098 0.43945835,19 1.00246168,19 L20.9975383,19 C21.5511826,19 22,19.4433532 22,20.0093689 L22,23 L9.11022949,23 L9.93406957e-09,23 L9.93406957e-09,20.0093689 Z" id="Rectangle-3" fill="#FFFFFF"></path>
                <path d="M9.80689664e-09,23.0093689 C9.80689664e-09,22.4519099 0.43945835,22 1.00246168,22 L20.9975383,22 C21.5511826,22 22,22.4433532 22,23.0093689 L22,24.9906311 C22,25.5480902 21.5605417,26 20.9975383,26 L1.00246168,26.0000001 C0.448817388,26.0000001 9.80689664e-09,25.5566469 9.80689664e-09,24.9906312 L9.80689664e-09,23.0093689 Z" id="Rectangle-1" fill="#DCDDDD"></path>
                <path d="M19,23 L20,23 L20,25 L19,25 L19,23 Z M17,23 L18,23 L18,25 L17,25 L17,23 Z M15,23 L16,23 L16,25 L15,25 L15,23 Z M13,23 L14,23 L14,25 L13,25 L13,23 Z" id="Combined-Shape" fill="#75C500"></path>
                <path d="M3,25 C3.55228475,25 4,24.5522847 4,24 C4,23.4477153 3.55228475,23 3,23 C2.44771525,23 2,23.4477153 2,24 C2,24.5522847 2.44771525,25 3,25 Z" id="Oval" fill="#75C600"></path>
            </g>
        </g>
    </g>
</svg>