<?xml version="1.0" encoding="UTF-8" standalone="no"?>
<svg width="128px" height="128px" viewBox="0 0 128 128" version="1.1" xmlns="http://www.w3.org/2000/svg" xmlns:xlink="http://www.w3.org/1999/xlink">
    <!-- Generator: Sketch 3.8.3 (29802) - http://www.bohemiancoding.com/sketch -->
    <title>drive-harddisk-windows-128px</title>
    <desc>Created with Sketch.</desc>
    <defs>
        <filter x="-50%" y="-50%" width="200%" height="200%" filterUnits="objectBoundingBox" id="filter-1">
            <feOffset dx="0" dy="3" in="SourceAlpha" result="shadowOffsetOuter1"></feOffset>
            <feGaussianBlur stdDeviation="3.5" in="shadowOffsetOuter1" result="shadowBlurOuter1"></feGaussianBlur>
            <feColorMatrix values="0 0 0 0 0   0 0 0 0 0   0 0 0 0 0  0 0 0 0.2 0" type="matrix" in="shadowBlurOuter1" result="shadowMatrixOuter1"></feColorMatrix>
            <feMerge>
                <feMergeNode in="shadowMatrixOuter1"></feMergeNode>
                <feMergeNode in="SourceGraphic"></feMergeNode>
            </feMerge>
        </filter>
        <linearGradient x1="50%" y1="0.410554847%" x2="50%" y2="100%" id="linearGradient-2">
            <stop stop-color="#9DDA00" offset="0%"></stop>
            <stop stop-color="#73C300" offset="100%"></stop>
        </linearGradient>
    </defs>
    <g id="Page-1" stroke="none" stroke-width="1" fill="none" fill-rule="evenodd">
        <g id="drive-harddisk-windows-128px">
            <g id="Group" filter="url(#filter-1)" transform="translate(19.000000, 11.000000)">
                <path d="M9.93406957e-09,3.99609375 C9.93406957e-09,1.78911211 1.79778418,-1.89549354e-09 3.99793938,-1.89549354e-09 L86.0020632,-1.89549354e-09 C88.2100641,-1.89549354e-09 90.0000025,1.79532687 90.0000024,3.99609375 L90,93 L9.93406957e-09,93 L9.93406957e-09,3.99609375 Z" id="Rectangle-1" fill="url(#linearGradient-2)"></path>
                <path d="M62,18 L45,21 L45,36 L62,36 L62,18 Z M27,23.4161004 L27,36 L40,36 L40,21.5 L27,23.4161004 Z M45,40 L45,54.5 L62,58 L62,40 L45,40 Z M27,40 L27,51.7403831 L40,53.5 L40,40 L27,40 Z" id="Page-1" fill="#FFFFFF"></path>
                <path d="M9.93406957e-09,83.9962029 C9.93406957e-09,81.789161 1.79778413,80 3.99793927,80 L86.0020608,80 C88.2100616,80 90,81.7931891 90,83.9916352 L90,95.5 L9.93406957e-09,96.0000008 L9.93406957e-09,83.9962029 Z" id="Rectangle-3" fill="#FFFFFF"></path>
                <path d="M-7.01766822e-09,93.9962027 C-7.01766822e-09,91.7891609 1.79778416,90 3.99793936,90 L86.0020632,90 C88.2100641,90 90.0000025,91.7888304 90.0000025,93.9962028 L90.0000025,102.003797 C90.0000025,104.210839 88.2022184,106 86.0020632,106 L3.99793936,106 C1.78993842,106 -7.01766822e-09,104.21117 -7.01766822e-09,102.003797 L-7.01766822e-09,93.9962027 Z" id="Rectangle-1" fill="#DCDDDD"></path>
                <path d="M53,95 L56,95.0209171 L56,101 L53.0382048,101 L53.0382048,95.0209171 L53,95 Z M58,95 L61,95.0209171 L61,101 L58.0382048,101 L58.0382048,95.0209171 L58,95 Z M63,95 L66,95.0209171 L66,101 L63.0382048,101 L63.0382048,95.0209171 L63,95 Z M68,95 L71,95.0209171 L71,101 L68.0382048,101 L68.0382048,95.0209171 L68,95 Z M73,95 L76,95.0209171 L76,101 L73.0382048,101 L73.0382048,95.0209171 L73,95 Z M78,95 L81,95.0209171 L81,101 L78.0382048,101 L78.0382048,95.0209171 L78,95 Z" id="Combined-Shape" fill="#75C500"></path>
                <path d="M12,101 C13.6568542,101 15,99.6568542 15,98 C15,96.3431458 13.6568542,95 12,95 C10.3431458,95 9,96.3431458 9,98 C9,99.6568542 10.3431458,101 12,101 Z" id="Oval" fill="#75C600"></path>
            </g>
        </g>
    </g>
</svg>