<?xml version="1.0" encoding="UTF-8" standalone="no"?>
<svg width="32px" height="32px" viewBox="0 0 32 32" version="1.1" xmlns="http://www.w3.org/2000/svg" xmlns:xlink="http://www.w3.org/1999/xlink">
    <!-- Generator: Sketch 3.8.3 (29802) - http://www.bohemiancoding.com/sketch -->
    <title>drive-harddisk-mac-32px</title>
    <desc>Created with Sketch.</desc>
    <defs>
        <filter x="-50%" y="-50%" width="200%" height="200%" filterUnits="objectBoundingBox" id="filter-1">
            <feOffset dx="0" dy="1" in="SourceAlpha" result="shadowOffsetOuter1"></feOffset>
            <feGaussianBlur stdDeviation="0.5" in="shadowOffsetOuter1" result="shadowBlurOuter1"></feGaussianBlur>
            <feColorMatrix values="0 0 0 0 0   0 0 0 0 0   0 0 0 0 0  0 0 0 0.2 0" type="matrix" in="shadowBlurOuter1" result="shadowMatrixOuter1"></feColorMatrix>
            <feMerge>
                <feMergeNode in="shadowMatrixOuter1"></feMergeNode>
                <feMergeNode in="SourceGraphic"></feMergeNode>
            </feMerge>
        </filter>
        <linearGradient x1="50%" y1="0.410554847%" x2="50%" y2="100%" id="linearGradient-2">
            <stop stop-color="#9DDA00" offset="0%"></stop>
            <stop stop-color="#73C300" offset="100%"></stop>
        </linearGradient>
    </defs>
    <g id="Page-1" stroke="none" stroke-width="1" fill="none" fill-rule="evenodd">
        <g id="drive-harddisk-mac-32px">
            <g id="Group-2" filter="url(#filter-1)" transform="translate(5.000000, 3.000000)">
                <path d="M9.93406957e-09,1.00307054 C9.93406957e-09,0.449089968 0.439458363,-1.38311407e-08 1.00246171,-1.38311407e-08 L20.9975389,-1.38311407e-08 C21.5511832,-1.38311407e-08 22.0000006,0.438917742 22.0000006,1.00307054 L22,23 L9.93406957e-09,23 L9.93406957e-09,1.00307054 Z" id="Rectangle-1" fill="url(#linearGradient-2)"></path>
                <path d="M16.4498452,11.5250527 C16.1639683,12.1580125 16.0273744,12.4409038 15.6601383,12.9999685 C15.1466048,13.7814649 14.4240752,14.7540436 13.5276309,14.7622541 C12.7312062,14.7697183 12.5266885,14.2442422 11.4466262,14.2502135 C10.3658174,14.2561848 10.1404001,14.7712111 9.3439754,14.7644934 C8.44753111,14.7562828 7.76232223,13.8777525 7.2495352,13.0962561 C5.81417935,10.9122461 5.66414995,8.34905731 6.54939802,6.9861037 C7.17862578,6.01800358 8.16986477,5.45147467 9.10288339,5.45147467 C10.0530696,5.45147467 10.6502015,5.97172585 11.43543,5.97172585 C12.1967731,5.97172585 12.6610432,5.44998184 13.7590195,5.44998184 C14.5890329,5.44998184 15.4683096,5.90230927 16.0952982,6.68380567 C14.0419108,7.80865292 14.3755582,10.7413171 16.4498452,11.5250527 L16.4498452,11.5250527 Z M12.9259459,4.57772139 C13.3245314,4.06568077 13.6275759,3.34240473 13.5178529,2.60345398 C12.8662327,2.64823887 12.1041431,3.06324556 11.6592798,3.60364995 C11.2547229,4.09404453 10.9210754,4.82179906 11.0516981,5.52940038 C11.7630314,5.55104642 12.4989965,5.12633634 12.9259459,4.57772139 L12.9259459,4.57772139 Z" id="Combined-Shape" fill="#FFFFFF"></path>
                <path d="M9.93406957e-09,20.0093689 C9.93406957e-09,19.4519098 0.43945835,19 1.00246168,19 L20.9975383,19 C21.5511826,19 22,19.4433532 22,20.0093689 L22,23 L9.11022949,23 L9.93406957e-09,23 L9.93406957e-09,20.0093689 Z" id="Rectangle-3" fill="#FFFFFF"></path>
                <path d="M9.8068398e-09,23.0093689 C9.8068398e-09,22.4519099 0.43945835,22 1.00246168,22 L20.9975383,22 C21.5511826,22 22,22.4433532 22,23.0093689 L22,24.9906311 C22,25.5480902 21.5605417,26 20.9975383,26 L1.00246168,26.0000001 C0.448817388,26.0000001 9.8068398e-09,25.5566469 9.8068398e-09,24.9906312 L9.8068398e-09,23.0093689 Z" id="Rectangle-1" fill="#DCDDDD"></path>
                <path d="M19,23 L20,23 L20,25 L19,25 L19,23 Z M17,23 L18,23 L18,25 L17,25 L17,23 Z M15,23 L16,23 L16,25 L15,25 L15,23 Z M13,23 L14,23 L14,25 L13,25 L13,23 Z" id="Combined-Shape" fill="#75C500"></path>
                <path d="M3,25 C3.55228475,25 4,24.5522847 4,24 C4,23.4477153 3.55228475,23 3,23 C2.44771525,23 2,23.4477153 2,24 C2,24.5522847 2.44771525,25 3,25 Z" id="Oval" fill="#75C600"></path>
            </g>
        </g>
    </g>
</svg>