<?xml version="1.0" encoding="UTF-8" standalone="no"?>
<svg width="32px" height="32px" viewBox="0 0 32 32" version="1.1" xmlns="http://www.w3.org/2000/svg" xmlns:xlink="http://www.w3.org/1999/xlink">
    <!-- Generator: Sketch 3.8.3 (29802) - http://www.bohemiancoding.com/sketch -->
    <title>drive-harddisk-linux-32px</title>
    <desc>Created with Sketch.</desc>
    <defs>
        <filter x="-50%" y="-50%" width="200%" height="200%" filterUnits="objectBoundingBox" id="filter-1">
            <feOffset dx="0" dy="1" in="SourceAlpha" result="shadowOffsetOuter1"></feOffset>
            <feGaussianBlur stdDeviation="0.5" in="shadowOffsetOuter1" result="shadowBlurOuter1"></feGaussianBlur>
            <feColorMatrix values="0 0 0 0 0   0 0 0 0 0   0 0 0 0 0  0 0 0 0.2 0" type="matrix" in="shadowBlurOuter1" result="shadowMatrixOuter1"></feColorMatrix>
            <feMerge>
                <feMergeNode in="shadowMatrixOuter1"></feMergeNode>
                <feMergeNode in="SourceGraphic"></feMergeNode>
            </feMerge>
        </filter>
        <linearGradient x1="50%" y1="0.410554847%" x2="50%" y2="100%" id="linearGradient-2">
            <stop stop-color="#9DDA00" offset="0%"></stop>
            <stop stop-color="#73C300" offset="100%"></stop>
        </linearGradient>
    </defs>
    <g id="Page-1" stroke="none" stroke-width="1" fill="none" fill-rule="evenodd">
        <g id="drive-harddisk-linux-32px">
            <g id="Group-2" filter="url(#filter-1)" transform="translate(5.000000, 3.000000)">
                <path d="M9.93406957e-09,1.00307054 C9.93406957e-09,0.449089968 0.439458363,-1.38311123e-08 1.00246171,-1.38311123e-08 L20.9975389,-1.38311123e-08 C21.5511832,-1.38311123e-08 22.0000006,0.438917742 22.0000006,1.00307054 L22,23 L9.93406957e-09,23 L9.93406957e-09,1.00307054 Z" id="Rectangle-1" fill="url(#linearGradient-2)"></path>
                <path d="M9.93406957e-09,20.0093689 C9.93406957e-09,19.4519098 0.43945835,19 1.00246168,19 L20.9975383,19 C21.5511826,19 22,19.4433532 22,20.0093689 L22,23 L9.11022949,23 L9.93406957e-09,23 L9.93406957e-09,20.0093689 Z" id="Rectangle-3" fill="#FFFFFF"></path>
                <path d="M9.80689664e-09,23.0093689 C9.80689664e-09,22.4519099 0.43945835,22 1.00246168,22 L20.9975383,22 C21.5511826,22 22,22.4433532 22,23.0093689 L22,24.9906311 C22,25.5480902 21.5605417,26 20.9975383,26 L1.00246168,26.0000001 C0.448817388,26.0000001 9.80689664e-09,25.5566469 9.80689664e-09,24.9906312 L9.80689664e-09,23.0093689 Z" id="Rectangle-1" fill="#DCDDDD"></path>
                <path d="M19,23 L20,23 L20,25 L19,25 L19,23 Z M17,23 L18,23 L18,25 L17,25 L17,23 Z M15,23 L16,23 L16,25 L15,25 L15,23 Z M13,23 L14,23 L14,25 L13,25 L13,23 Z" id="Combined-Shape" fill="#75C500"></path>
                <path d="M3,25 C3.55228475,25 4,24.5522847 4,24 C4,23.4477153 3.55228475,23 3,23 C2.44771525,23 2,23.4477153 2,24 C2,24.5522847 2.44771525,25 3,25 Z" id="Oval" fill="#75C600"></path>
            </g>
            <path d="M19.4356262,14.2543134 C19.4356262,14.1725477 19.3107096,14.077157 19.0608703,13.9681366 C19.0790407,13.899999 19.0960754,13.8375407 19.1119731,13.7807586 C19.1278724,13.7239781 19.1392294,13.6649265 19.1460427,13.6036022 C19.152856,13.5422779 19.1596693,13.4934462 19.1664841,13.4571071 C19.1732974,13.4207665 19.1744329,13.3696637 19.1698907,13.3037972 C19.1653485,13.2379308 19.1630774,13.1936428 19.1630774,13.1709303 C19.1630774,13.1482178 19.1551271,13.0982505 19.1392294,13.021027 C19.1233302,12.9438051 19.1142458,12.8972445 19.1119731,12.8813468 C19.109702,12.8654476 19.0983465,12.808667 19.0779051,12.7110021 C19.0574637,12.6133387 19.0449726,12.5531515 19.0404289,12.530439 C18.9950039,12.3123982 18.8882576,12.0784627 18.7201841,11.8286235 C18.5521105,11.5787858 18.3885837,11.4084441 18.2295945,11.3175941 C18.3386149,11.4084441 18.4680752,11.5969561 18.6179785,11.8831345 C19.0131773,12.6190211 19.1358227,13.2504203 18.9859195,13.777352 C18.9359522,13.9590522 18.8223912,14.0544444 18.6452332,14.0635288 C18.5044143,14.0816992 18.4169724,14.0396808 18.3829044,13.9374752 C18.3488349,13.8352681 18.3306661,13.6456221 18.328395,13.3685281 C18.3261223,13.0914342 18.3000047,12.8484143 18.2500359,12.6394579 C18.2091531,12.4622999 18.1648651,12.3055864 18.117169,12.1693113 C18.0694728,12.0330362 18.0251834,11.929695 17.9843005,11.8592864 C17.9434177,11.7888777 17.9082141,11.7332327 17.8786883,11.6923499 C17.8491609,11.651467 17.8196351,11.617399 17.7901093,11.5901428 C17.7605835,11.5628881 17.7435487,11.5469904 17.7390065,11.5424466 C17.6754111,11.260812 17.6050025,11.026875 17.5277805,10.8406326 C17.4505586,10.6543903 17.3835565,10.5272011 17.326776,10.4590635 C17.2699939,10.390926 17.2166201,10.3159751 17.1666528,10.2342109 C17.1166856,10.1524452 17.082616,10.0615967 17.0644472,9.96166068 C17.0462769,9.8662684 17.0599035,9.74475847 17.1053285,9.59712632 C17.1507536,9.44949418 17.1609751,9.33706865 17.1359914,9.25984669 C17.1110063,9.1826232 17.0099378,9.12584266 16.8327798,9.08950354 C16.7646423,9.07587542 16.6635722,9.0349941 16.5295682,8.96685501 C16.3955642,8.89871745 16.3149356,8.86237833 16.2876808,8.85783613 C16.2513402,8.85329394 16.2263566,8.7942423 16.21273,8.68067817 C16.1991019,8.56711556 16.2172722,8.45128338 16.2672394,8.33317858 C16.3172067,8.21507378 16.3989708,8.15374951 16.5125334,8.14920731 C16.680607,8.13558072 16.7964392,8.20371675 16.8600345,8.35362 C16.9236299,8.50352172 16.9327143,8.63525312 16.8872893,8.74881573 C16.837322,8.83512361 16.8327798,8.8953108 16.8736627,8.92938035 C16.914544,8.96344836 16.9826815,8.96458391 17.0780738,8.932787 C17.137127,8.91461667 17.1666528,8.83285251 17.1666528,8.68749299 L17.1666528,8.43538416 C17.1439403,8.29910904 17.1132789,8.18554796 17.0746672,8.09469787 C17.0360554,8.00384779 16.9883608,7.93457468 16.9315788,7.88687854 C16.8747967,7.83918239 16.8214243,7.80511438 16.7714556,7.78467295 C16.7214883,7.76423153 16.6601656,7.74719676 16.5874858,7.73357016 C16.101437,7.76990928 15.8992969,8.0742534 15.9810626,8.64661015 C15.9810626,8.71474771 15.9787915,8.74881573 15.9742493,8.74881573 C15.9333664,8.70793289 15.8663659,8.68408634 15.7732432,8.67727152 C15.6801221,8.67045822 15.6051727,8.67159377 15.5483907,8.68067817 C15.4916086,8.68976409 15.456405,8.67840707 15.4427784,8.64661015 C15.4473206,8.38768649 15.41098,8.18327686 15.333758,8.03337361 C15.2565361,7.88347189 15.1543305,7.80624993 15.0271397,7.80170773 C14.9044927,7.797164 14.810236,7.85962382 14.7443696,7.98908412 C14.6785031,8.11854594 14.6410284,8.25368399 14.631944,8.39450132 C14.6274003,8.46264041 14.6353507,8.54667414 14.6557921,8.64661015 C14.676232,8.74654616 14.7057593,8.83171696 14.7443696,8.90212563 C14.7829813,8.97253429 14.8181849,9.00319566 14.8499833,8.99411126 C14.8954083,8.98048314 14.9317475,8.94868622 14.9590022,8.89871898 C14.9771725,8.85783613 14.9612748,8.83966581 14.911306,8.84420801 C14.8795091,8.84420801 14.8443056,8.81127554 14.8056938,8.74540908 C14.7670821,8.67954262 14.7455051,8.60345621 14.7409629,8.51714985 C14.7364207,8.41721384 14.7568621,8.33317858 14.8022872,8.26504102 C14.8477122,8.19690345 14.9249326,8.16510654 15.033953,8.16964873 C15.1111765,8.16964873 15.1724993,8.21734488 15.2179243,8.31273716 C15.2633494,8.40812944 15.2849263,8.4967069 15.2826552,8.57847258 C15.2803841,8.66023827 15.2769775,8.71020551 15.2724338,8.72837431 C15.1724993,8.7965134 15.1020906,8.86237833 15.0612093,8.9259737 C15.0248686,8.98048314 14.9624104,9.03385703 14.8738314,9.08609537 C14.7852524,9.13833523 14.7386918,9.1667255 14.7341496,9.1712677 C14.6750964,9.23486307 14.6398929,9.2961858 14.6285358,9.35523897 C14.6171803,9.41429061 14.6342151,9.45517345 14.6796402,9.47788597 C14.743234,9.51422662 14.8000145,9.55851458 14.8499833,9.61075292 C14.8999505,9.66299279 14.9362897,9.7061452 14.9590022,9.74021475 C14.9817147,9.77428277 15.0237331,9.80380859 15.0850574,9.82879373 C15.1463801,9.85377735 15.2270087,9.8685395 15.3269447,9.8730817 C15.5404418,9.88216762 15.7721077,9.8480996 16.0219454,9.77087612 C16.0310298,9.76633392 16.0832682,9.7504347 16.1786604,9.72317998 C16.2740542,9.69592526 16.3524118,9.67207719 16.4137345,9.65163576 C16.4750588,9.63119434 16.5420592,9.60166852 16.6147405,9.56305678 C16.6874203,9.52444656 16.7351164,9.48469927 16.757829,9.44381643 C16.7987118,9.38022259 16.8441353,9.36205227 16.8941026,9.38930699 C16.9168151,9.40293511 16.9315788,9.42223946 16.9383921,9.4472246 C16.9452069,9.47220822 16.9383921,9.49946294 16.9179506,9.52898876 C16.8975107,9.55851458 16.8600345,9.58009155 16.8055251,9.59371968 C16.714675,9.6209744 16.5863503,9.66980609 16.4205493,9.74021475 C16.2547468,9.81062341 16.1514057,9.8549129 16.1105244,9.8730817 C15.9106539,9.95938958 15.7516678,10.0116279 15.633563,10.0297982 C15.5199989,10.0525108 15.3405728,10.0479686 15.0952773,10.0161701 C15.0498523,10.0070857 15.0294108,10.0116279 15.033953,10.0297982 C15.0384968,10.0479686 15.077107,10.091121 15.1497868,10.1592585 C15.2633494,10.2637368 15.4155222,10.313704 15.6063067,10.3091618 C15.6835302,10.3046196 15.7652944,10.2887204 15.8516023,10.2614657 C15.9379102,10.2342094 16.0196743,10.2024125 16.0968963,10.1660734 C16.1741182,10.1297327 16.2502047,10.089987 16.325157,10.046833 C16.4001079,10.0036791 16.4682439,9.96506733 16.5295682,9.93099931 C16.5908925,9.89692977 16.6465375,9.86967505 16.6965047,9.84923363 C16.7464719,9.82879373 16.7862192,9.82311446 16.815745,9.83220038 C16.8452709,9.84128478 16.8645767,9.8662684 16.8736627,9.90715124 C16.8736627,9.91623564 16.87139,9.92645711 16.8668478,9.93781261 C16.8623056,9.94916964 16.8532212,9.96052513 16.8395931,9.97188216 C16.8259665,9.98323765 16.8123384,9.9934576 16.7987103,10.0025435 C16.7850837,10.0116279 16.7657778,10.0229849 16.7407942,10.0366115 C16.7158106,10.0502397 16.6953691,10.0604596 16.6794699,10.0672744 C16.6635722,10.0740877 16.6408597,10.0854432 16.6113339,10.1013425 C16.5818065,10.1172417 16.5602296,10.1274616 16.546603,10.1320038 C16.4194122,10.1955992 16.2661054,10.2955337 16.0866763,10.4318088 C15.9072457,10.5680839 15.75621,10.6657458 15.633563,10.7247989 C15.5109145,10.7838521 15.3996245,10.7861232 15.29969,10.7316122 C15.2042962,10.681645 15.0612093,10.5158456 14.8704247,10.2342109 C14.7704887,10.0933921 14.7137082,10.0434248 14.7000801,10.0843077 C14.6955379,10.0979358 14.6932668,10.1206483 14.6932668,10.1524452 C14.6932668,10.2660079 14.6591987,10.3943326 14.5910612,10.537421 C14.5229236,10.680511 14.4559216,10.8065631 14.3900551,10.9155835 C14.3241887,11.0246039 14.2764941,11.1563353 14.2469667,11.3107808 C14.2174409,11.4652262 14.2435601,11.6083131 14.3253258,11.740046 C14.2208475,11.7673008 14.0788962,11.9717104 13.8994671,12.353281 C13.7200381,12.7348532 13.6121547,13.055095 13.5758141,13.3140187 C13.5667297,13.3957829 13.563323,13.5524979 13.5655941,13.7841653 C13.5678652,14.0158342 13.5553742,14.1498367 13.5281179,14.1861758 C13.4917788,14.2951962 13.4259124,14.3020095 13.3305201,14.2066173 C13.185159,14.0657999 13.1033964,13.8523044 13.0852261,13.566126 C13.0761402,13.4389368 13.0852261,13.3117476 13.1124808,13.1845569 C13.1306511,13.098249 13.12838,13.0573677 13.1056675,13.0619099 L13.0784113,13.0959794 C12.9148814,13.3912422 12.9375939,13.7682645 13.1465488,14.2270587 C13.1692613,14.2815681 13.2260419,14.3451635 13.316892,14.4178432 C13.4077436,14.490523 13.4622515,14.535948 13.4804218,14.5541184 C13.5712719,14.6585951 13.80748,14.8641418 14.1890506,15.1707616 C14.5706213,15.4773798 14.7818457,15.6511296 14.8227286,15.6920109 C14.8954083,15.76015 14.9351541,15.8464564 14.9419689,15.9509331 C14.9487822,16.0554113 14.9169853,16.1530731 14.8465767,16.2439247 C14.7761665,16.3347748 14.6728269,16.3870132 14.5365517,16.4006398 C14.5728909,16.4687773 14.6387573,16.5698474 14.7341496,16.7038514 C14.8295419,16.8378553 14.8931357,16.9605013 14.9249342,17.0717928 C14.9567311,17.1830843 14.9726303,17.3432056 14.9726303,17.5521611 C15.1815852,17.4431408 15.1974844,17.2341884 15.0203265,16.9252975 C15.0021561,16.8889574 14.9783081,16.8526179 14.9487822,16.8162778 C14.9192564,16.7799376 14.8976794,16.7526831 14.8840513,16.7345129 C14.8704247,16.7163429 14.865881,16.7027158 14.8704247,16.6936299 C14.8840513,16.6709174 14.9135771,16.6493419 14.9590022,16.6289005 C15.0044272,16.6084591 15.0498523,16.6141368 15.0952773,16.6459338 C15.3042322,16.882145 15.6812561,16.9639091 16.2263566,16.8912288 C16.8305118,16.8230911 17.2325177,16.6254954 17.4323882,16.2984342 C17.5368664,16.1258184 17.6140869,16.0576824 17.6640556,16.0940215 C17.7185651,16.1212777 17.7412776,16.239381 17.7321932,16.4483359 C17.7276495,16.5618985 17.6754127,16.7708514 17.5754767,17.0751996 C17.5345938,17.1796775 17.5209672,17.2648484 17.5345938,17.3307147 C17.5482219,17.3965811 17.6027314,17.4317852 17.6981237,17.4363277 C17.7117518,17.3500199 17.7446843,17.1751358 17.7969226,16.9116701 C17.8491625,16.6482049 17.8798238,16.4437937 17.8889082,16.2984342 C17.8979942,16.2030419 17.8832305,16.0361069 17.8446187,15.7976247 C17.8060085,15.5591425 17.7889737,15.3388336 17.7935159,15.136692 C17.7980581,14.9345504 17.8502965,14.7744288 17.9502325,14.656324 C18.0183701,14.5745583 18.1342022,14.5336769 18.2977321,14.5336769 C18.3022743,14.3656034 18.3806318,14.245229 18.5328061,14.1725492 C18.6849805,14.099868 18.8496444,14.0760214 19.0268023,14.101005 C19.2039603,14.1259886 19.3402339,14.1770914 19.4356262,14.2543134 L19.4356262,14.2543134 Z M15.1566016,8.61935543 C15.1702282,8.54213194 15.1645504,8.4739959 15.1395668,8.41494274 C15.1145832,8.3558911 15.088464,8.32182156 15.0612093,8.31273716 C15.0203265,8.30365276 14.999885,8.31955046 14.999885,8.3604333 C15.0089694,8.38314582 15.0203265,8.39677394 15.033953,8.40131614 C15.0793781,8.40131614 15.0952773,8.43538416 15.0816492,8.50352172 C15.0680226,8.59437181 15.0861914,8.63979685 15.1361602,8.63979685 C15.1497868,8.63979685 15.1566016,8.63298202 15.1566016,8.61935543 L15.1566016,8.61935543 Z M16.7987103,8.51033502 C16.7987103,8.46036778 16.7873548,8.41607829 16.7646423,8.37746807 C16.7419297,8.33885633 16.7169461,8.31046606 16.6896914,8.29229574 C16.6624367,8.27412542 16.6419953,8.26731212 16.6283671,8.27185432 C16.5647718,8.27639651 16.5488741,8.29229574 16.580671,8.31955046 C16.5897569,8.32409266 16.5988413,8.32863638 16.6079257,8.33317858 C16.6715211,8.3513489 16.7124039,8.42175604 16.7305742,8.54440457 C16.7305742,8.55803116 16.748743,8.55348896 16.7850837,8.53077644 L16.7987103,8.51033502 Z M21.2276381,16.22689 C21.2776054,16.2836705 21.3048601,16.3381799 21.3094038,16.3904198 C21.313946,16.4426582 21.3082683,16.4937609 21.292369,16.5437282 C21.2764698,16.5936954 21.2412662,16.6436627 21.1867553,16.6936299 C21.1322458,16.7435982 21.0788719,16.7878871 21.0266336,16.8264984 C20.9743937,16.8651097 20.9062577,16.9071273 20.8222209,16.9525525 C20.7381841,16.9979775 20.6666414,17.0354528 20.6075883,17.0649791 C20.5485351,17.0945054 20.4758569,17.1297094 20.389549,17.1705919 C20.3032411,17.2114746 20.2419184,17.2410004 20.2055777,17.2591705 C20.032962,17.3454782 19.8387738,17.4726666 19.6230041,17.6407396 C19.4072344,17.8088125 19.2357572,17.9541708 19.1085665,18.0768186 C19.0313445,18.1494988 18.8769006,18.1937877 18.6452332,18.2096865 C18.4135643,18.2255853 18.2114257,18.1926525 18.0388099,18.1108873 C17.9570458,18.0700047 17.8900438,18.016631 17.8378054,17.9507645 C17.7855671,17.8848982 17.7480909,17.826982 17.7253784,17.7770144 C17.7026659,17.7270467 17.6526986,17.6827578 17.5754767,17.6441465 C17.4982547,17.6055351 17.3915069,17.5839586 17.2552318,17.5794161 C17.0553613,17.5748736 16.7601016,17.5726023 16.369445,17.5726023 C16.2831386,17.5726023 16.1536783,17.5760091 15.9810626,17.5828229 C15.8084468,17.5896366 15.6767169,17.5953147 15.5858668,17.5998572 C15.3859964,17.6043997 15.2054333,17.638468 15.0441745,17.7020632 C14.8829158,17.7656585 14.7614043,17.8337951 14.6796402,17.9064753 C14.5978745,17.9791555 14.4990755,18.0438854 14.3832418,18.1006667 C14.2674081,18.1574481 14.1458982,18.1835672 14.0187075,18.1790247 C13.8869746,18.1744822 13.6348688,18.1040743 13.2623825,17.967799 C12.8898963,17.8315235 12.558299,17.7338609 12.2675775,17.6748084 C12.1812697,17.6566382 12.0654374,17.6350617 11.9200771,17.6100779 C11.7747167,17.585094 11.6611556,17.564653 11.5793904,17.5487543 C11.4976251,17.5328555 11.4079118,17.5112788 11.3102478,17.4840238 C11.2125838,17.4567686 11.1364979,17.423836 11.0819877,17.3852246 C11.0274776,17.3466133 10.9888668,17.3023244 10.9661542,17.2523569 C10.9207291,17.1478789 10.9366277,16.9968427 11.0138504,16.7992435 C11.091073,16.6016443 11.1319551,16.4778632 11.1364976,16.4278945 C11.1410401,16.3552147 11.1319552,16.2643662 11.1092427,16.1553458 C11.08653,16.0463253 11.0638178,15.949799 11.0411053,15.8657623 C11.0183927,15.7817255 11.0081722,15.6988258 11.0104435,15.6170601 C11.0127148,15.5352959 11.0365626,15.4739717 11.0819877,15.4330903 C11.1455829,15.3785794 11.2750426,15.3467825 11.4703706,15.3376981 C11.6656986,15.3286121 11.801972,15.3013574 11.8791946,15.2559324 C12.01547,15.1741667 12.1108614,15.0946751 12.1653714,15.0174517 C12.2198816,14.9402297 12.2471363,14.8243975 12.2471363,14.6699521 C12.2471363,14.7994126 12.3675124,14.4655394 12.3493424,14.356519 C12.3357147,14.2838392 12.3311724,14.1975329 12.3357149,14.0975984 C12.3402574,13.9658655 12.3629696,13.8477606 12.4038521,13.743284 C12.4447348,13.6388058 12.4992443,13.532058 12.5673818,13.4230376 C12.6355194,13.3140172 12.6854866,13.2186264 12.7172835,13.1368607 C12.7536242,13.0414684 12.8138114,12.8779401 12.8978482,12.6462727 C12.9818849,12.4146038 13.0488854,12.2374489 13.0988527,12.1148003 C13.1488214,11.9921533 13.2169575,11.8536086 13.3032654,11.6991632 C13.3895732,11.5447177 13.4781507,11.4220723 13.5690008,11.3312222 C14.0686778,10.6816419 14.3503094,10.2387547 14.4139032,10.0025435 C14.3593938,9.49378214 14.3230547,8.78970315 14.3048843,7.89028519 C14.2957984,7.48145981 14.3503078,7.13736992 14.4684142,6.85800485 C14.586519,6.57863977 14.8272693,6.34129767 15.1906696,6.14596938 C15.3678276,6.0505771 15.6040341,6.00288095 15.8992984,6.00288095 C16.1400517,5.99833876 16.3808005,6.02900012 16.6215538,6.09486659 C16.8623072,6.16073305 17.0644457,6.25498826 17.2279755,6.37763679 C17.4868992,6.56842135 17.6947155,6.8443752 17.8514336,7.20550596 C18.0081501,7.5666352 18.0751506,7.90164068 18.0524381,8.21053158 C18.0297256,8.64206947 18.0978616,9.12811071 18.2568508,9.66867054 C18.4112962,10.1819741 18.7133677,10.6771013 19.1630774,11.1540642 C19.4129152,11.4220723 19.6389018,11.7922813 19.8410434,12.2647036 C20.043185,12.7371243 20.178323,13.1709272 20.2464606,13.566126 C20.2828012,13.788709 20.2941567,13.9806276 20.2805286,14.1418863 C20.266902,14.3031466 20.2396473,14.4291987 20.1987644,14.5200488 C20.1578816,14.6108989 20.2578161,14.9765703 20.3214114,14.9220594 C20.3259536,15.0628782 20.344124,15.1912015 20.3759209,15.3070352 C20.4077193,15.4228704 20.4406518,15.5148545 20.4747213,15.5829921 C20.5087894,15.6511296 20.5553499,15.715859 20.6144016,15.7771833 C20.6734547,15.8385075 20.7211509,15.88166 20.75749,15.9066436 C20.7938306,15.9316287 20.8426623,15.9611545 20.9039866,15.9952226 C20.9653093,16.0292921 21.0027855,16.0508675 21.0164121,16.0599535 C21.1072622,16.1144629 21.1776709,16.1701079 21.2276381,16.22689 Z" id="Page-1" fill="#FFFFFF"></path>
        </g>
    </g>
</svg>