<?xml version="1.0" encoding="UTF-8"?>
<svg width="24px" height="24px" viewBox="0 0 24 24" version="1.1" xmlns="http://www.w3.org/2000/svg" xmlns:xlink="http://www.w3.org/1999/xlink">
    <!-- Generator: Sketch 48.2 (47327) - http://www.bohemiancoding.com/sketch -->
    <title>edit_press</title>
    <desc>Created with Sketch.</desc>
    <defs></defs>
    <g id="Symbols" stroke="none" stroke-width="1" fill="none" fill-rule="evenodd">
        <g id="edit_press">
            <path d="M11.5606602,13.9246212 L10.1464466,12.5104076 L16.9748737,5.68198052 L18.3890873,7.09619408 L11.5606602,13.9246212 Z M10.8535534,14.631728 L9.56792474,15.9173566 L8.03368529,16.0373825 L8.15371118,14.5031431 L9.43933983,13.2175144 L10.8535534,14.631728 Z M12,23 C5.92486775,23 1,18.0751322 1,12 C1,5.92486775 5.92486775,1 12,1 C18.0751322,1 23,5.92486775 23,12 C23,18.0751322 18.0751322,23 12,23 Z M17,12.6461939 L17,18 L6,18 L6,7 L11.5986485,7 L11.5986485,6 L5,6 L5,19 L18,19 L18,12.6461939 L17,12.6461939 Z M19.8033009,7.09619408 L16.9748737,4.26776695 L7.18555121,14.0570895 L6.94549943,17.1255684 L10.0139783,16.8855166 L19.8033009,7.09619408 Z" id="Combined-Shape" fill="#2CA7F8"></path>
            <path d="M11.5606602,13.9268542 L18.3890873,7.09842711 L16.9748737,5.68421354 L10.1464466,12.5126407 L11.5606602,13.9268542 Z M10.8535534,14.633961 L9.43933983,13.2197474 L8.15371118,14.5053761 L8.03368529,16.0396156 L9.56792474,15.9195897 L10.8535534,14.633961 Z M17,12.648427 L18,12.648427 L18,19.002233 L5,19.002233 L5,6.00223303 L11.5986485,6.00223303 L11.5986485,7.00223303 L6,7.00223303 L6,18.002233 L17,18.002233 L17,12.648427 Z M19.8033009,7.09842711 L10.0139783,16.8877496 L6.94549943,17.1278014 L7.18555121,14.0593225 L16.9748737,4.26999998 L19.8033009,7.09842711 Z" id="Combined-Shape" fill-opacity="0.4" fill="#000000"></path>
        </g>
    </g>
</svg>