<?xml version="1.0" encoding="UTF-8"?>
<svg width="24px" height="24px" viewBox="0 0 24 24" version="1.1" xmlns="http://www.w3.org/2000/svg" xmlns:xlink="http://www.w3.org/1999/xlink">
    <!-- Generator: Sketch 48.2 (47327) - http://www.bohemiancoding.com/sketch -->
    <title>edit_normal</title>
    <desc>Created with Sketch.</desc>
    <defs>
        <path d="M11.5606602,13.9246212 L10.1464466,12.5104076 L16.9748737,5.68198052 L18.3890873,7.09619408 L11.5606602,13.9246212 Z M10.8535534,14.631728 L9.56792474,15.9173566 L8.03368529,16.0373825 L8.15371118,14.5031431 L9.43933983,13.2175144 L10.8535534,14.631728 Z M12,23 C5.92486775,23 1,18.0751322 1,12 C1,5.92486775 5.92486775,1 12,1 C18.0751322,1 23,5.92486775 23,12 C23,18.0751322 18.0751322,23 12,23 Z M17,12.6461939 L17,18 L6,18 L6,7 L11.5986485,7 L11.5986485,6 L5,6 L5,19 L18,19 L18,12.6461939 L17,12.6461939 Z M19.8033009,7.09619408 L16.9748737,4.26776695 L7.18555121,14.0570895 L6.94549943,17.1255684 L10.0139783,16.8855166 L19.8033009,7.09619408 Z" id="path-1"></path>
    </defs>
    <g id="Symbols" stroke="none" stroke-width="1" fill="none" fill-rule="evenodd">
        <g id="edit_normal">
            <g id="Combined-Shape">
                <use fill-opacity="0.8" fill="#FFFFFF" fill-rule="evenodd" xlink:href="#path-1"></use>
                <path stroke-opacity="0.1" stroke="#000000" stroke-width="1" d="M11.5606602,14.631728 L9.43933983,12.5104076 L16.9748737,4.97487373 L19.0961941,7.09619408 L11.5606602,14.631728 Z M11.5606602,14.631728 L9.79095154,16.4014366 L7.48959236,16.5814755 L7.66963119,14.2801163 L9.43933983,12.5104076 L11.5606602,14.631728 Z M12,23.5 C5.64872538,23.5 0.5,18.3512746 0.5,12 C0.5,5.64872538 5.64872538,0.5 12,0.5 C18.3512746,0.5 23.5,5.64872538 23.5,12 C23.5,18.3512746 18.3512746,23.5 12,23.5 Z M17.5,15.323097 L17.5,19 L18,18.5 L5,18.5 L5.5,19 L5.5,18.25 L5.5,18.5 L17.5,18.5 L17.5,15.323097 Z M5.5,18.25 L5.5,12.5 L5.5,18.25 Z M5.5,6.75 L5.5,6 L5,6.5 L5.75,6.5 L5.5,6.5 L5.5,6.75 Z M8.79932423,6.5 L11.5986485,6.5 L11.0986485,6 L11.0986485,7 L11.5986485,6.5 L8.79932423,6.5 Z M17.5,15.323097 L17.5,12.6461939 L17,13.1461939 L18,13.1461939 L17.5,12.6461939 L17.5,15.323097 Z M19.0961941,7.09619408 L16.9748737,4.97487373 L7.66963119,14.2801163 L7.48959236,16.5814755 L9.79095154,16.4014366 L19.0961941,7.09619408 Z"></path>
            </g>
            <path d="M11.5606602,13.9246212 L18.3890873,7.09619408 L16.9748737,5.68198052 L10.1464466,12.5104076 L11.5606602,13.9246212 Z M10.8535534,14.631728 L9.43933983,13.2175144 L8.15371118,14.5031431 L8.03368529,16.0373825 L9.56792474,15.9173566 L10.8535534,14.631728 Z M17,12.6461939 L18,12.6461939 L18,19 L5,19 L5,6 L11.5986485,6 L11.5986485,7 L6,7 L6,18 L17,18 L17,12.6461939 Z M19.8033009,7.09619408 L10.0139783,16.8855166 L6.94549943,17.1255684 L7.18555121,14.0570895 L16.9748737,4.26776695 L19.8033009,7.09619408 Z" id="Combined-Shape" fill-opacity="0.4" fill="#000000"></path>
        </g>
    </g>
</svg>