<?xml version="1.0" encoding="UTF-8"?>
<svg width="23px" height="22px" viewBox="0 0 23 22" version="1.1" xmlns="http://www.w3.org/2000/svg" xmlns:xlink="http://www.w3.org/1999/xlink">
    <!-- Generator: Sketch 47.1 (45422) - http://www.bohemiancoding.com/sketch -->
    <title>keyboard_hover</title>
    <desc>Created with Sketch.</desc>
    <defs></defs>
    <g id="Symbols" stroke="none" stroke-width="1" fill="none" fill-rule="evenodd">
        <g id="keyboard_hover" stroke="#FFFFFF">
            <g id="keyboard-normal" transform="translate(1.000000, 4.000000)">
                <path d="M19.547619,14.5 L1.45238095,14.5 C0.926666667,14.5 0.5,14.052 0.5,13.5 L0.5,1.5 C0.5,0.948 0.926666667,0.5 1.45238095,0.5 L19.547619,0.5 C20.0733333,0.5 20.5,0.948 20.5,1.5 L20.5,13.5 C20.5,14.052 20.0733333,14.5 19.547619,14.5 Z" id="Shape"></path>
                <path d="M1,5.5 L21,5.5" id="Shape"></path>
                <path d="M1,10.5 L21,10.5" id="Shape"></path>
                <path d="M4.5,1 L4.5,5" id="Shape"></path>
                <path d="M8.5,1 L8.5,5" id="Shape"></path>
                <path d="M12.5,1 L12.5,5" id="Shape"></path>
                <path d="M16.5,1 L16.5,5" id="Shape"></path>
                <path d="M15.5,6 L15.5,10" id="Shape"></path>
                <path d="M10.5,6 L10.5,10" id="Shape"></path>
                <path d="M5.5,6 L5.5,10" id="Shape"></path>
                <path d="M4.5,11 L4.5,14" id="Shape"></path>
                <path d="M16.5,11 L16.5,14" id="Shape"></path>
            </g>
        </g>
    </g>
</svg>