<?xml version="1.0" encoding="UTF-8"?>
<svg width="194px" height="50px" viewBox="0 0 194 50" version="1.1" xmlns="http://www.w3.org/2000/svg" xmlns:xlink="http://www.w3.org/1999/xlink">
    <!-- Generator: Sketch 47.1 (45422) - http://www.bohemiancoding.com/sketch -->
    <title>logo</title>
    <desc>Created with Sketch.</desc>
    <defs></defs>
    <g id="Page-1" stroke="none" stroke-width="1" fill="none" fill-rule="evenodd">
        <g id="安装器3" transform="translate(-869.000000, -143.000000)" fill="#FFFFFF">
            <g id="ISO安装器2" transform="translate(7.000000, 6.000000)">
                <g id="Imported-Layers" transform="translate(862.000000, 137.000000)">
                    <path d="M155.166667,7 C154.522667,7 154,6.47733333 154,5.83333333 L154,1.16666667 C154,0.522666667 154.522667,0 155.166667,0 L159.833333,0 C160.477333,0 161,0.522666667 161,1.16666667 L161,5.83333333 C161,6.47733333 160.477333,7 159.833333,7 L155.166667,7 Z M155.166667,40 C154.522667,40 154,39.4586667 154,38.7916667 L154,12.2083333 C154,11.5413333 154.522667,11 155.166667,11 L159.833333,11 C160.477333,11 161,11.5413333 161,12.2083333 L161,38.7916667 C161,39.4586667 160.477333,40 159.833333,40 L155.166667,40 Z M163,11.0028779 C163,11.0028779 173.318231,10.9944205 182.076923,11.0065025 C190.835615,11.0185844 194,15.8332566 194,22.5303024 L194,38.7878252 C194,39.4547509 193.467038,39.9948158 192.808885,39.996024 L188.042038,39.9984404 C187.3815,39.9996486 186.847346,39.4571673 186.848538,38.7878252 L186.883115,23.0800329 C186.883115,17.1393195 182.2665,17.0487046 182.067385,17.0487046 C178.875577,17.0487046 170.152654,17.0583701 170.152654,17.0583701 L170.187231,38.7491628 C170.187231,38.7491628 170.234923,40.2062505 168.591923,39.9694436 C167.425846,39.9730682 165.593269,39.9791092 164.427192,39.983942 C163.345769,40.124093 163,39.315808 163,38.7672858 L163,11.0028779 Z M121.984393,50 C121.470793,49.9987874 117.718398,49.9987874 117.203599,50 C117.203599,50 116,50 116,48.7873643 C116,48.5569636 116,18.9427636 116,17.0280119 C116,17.0280119 115.9976,11 121.985593,11 C126.819187,11 127.129987,11.0254653 138.550373,11.0145516 C149.969559,11.0024253 151.987956,20.8284121 151.999956,25.5176742 C152.010756,30.2081489 150.022359,40.0911296 138.729172,40.086279 C133.471979,40.0850664 128.239985,40.0874917 123.187991,40.086279 C123.187991,40.086279 123.183191,48.6503365 123.183191,48.7497726 C123.183191,50 121.984393,50 121.984393,50 Z M124.195034,17.0072693 C122.982089,17.0072693 123.000015,18.1938548 123.000015,18.1938548 C123.000015,19.2722373 123.00599,33.9878424 123.00599,33.9878424 C123.00599,33.9878424 132.500421,34 135.823771,34 C139.149511,34 144.476908,32.9568747 144.473323,25.4227864 C144.470933,17.8899139 139.677709,17.0169955 135.767605,17.0048378 C131.858696,16.9926802 125.497606,17.0072693 124.195034,17.0072693 Z M72.6225776,40 L46.3883107,39.9613333 C46.3883107,39.9613333 38.0112228,40 38.0112228,31.532 C38.0112228,25.5555833 38.0088328,23.9315833 38.0088328,19.3894583 C38.0088328,19.3894583 37.3886176,11 46.5424683,11 L66.6857199,11 C75.6794379,11 75.0317373,19.5018333 75.0317373,19.5018333 L75.0317373,24.2916667 C75.0317373,24.2916667 73.8546429,29 69.0661991,29 L45.1562455,29 C45.1562455,29 45.1251749,31.4292917 45.1562455,31.58275 C45.1562455,31.58275 45.1191998,33.939 47.5271645,33.939 C49.0460345,33.939 72.6416979,33.9583333 72.6416979,33.9583333 C72.6416979,33.9583333 73.8546429,33.9776667 73.8546429,35.186 C73.8546429,35.6077083 73.860618,38.3530417 73.861813,38.7723333 C73.863008,38.8847083 73.8558379,40 72.6225776,40 Z M45,23 C45,23 65.7712629,22.9976009 66.5350353,22.9976009 C67.6908537,22.9976009 67.6908537,21.8004265 67.6908537,21.8004265 C67.6908537,20.9079438 67.7051968,20.3357473 67.7099779,19.4012795 C67.7159542,18.2196997 66.4585386,17.0021326 65.3756312,17.0021326 C64.1731976,17.0021326 48.5702476,16.9973343 47.4096482,17.0021326 C46.1582089,17.0057313 45.004781,18.2017061 45.004781,19.4192731 C45.004781,19.8931047 45,23 45,23 Z M111.622578,40 L85.3883107,39.9613333 C85.3883107,39.9613333 77.0112228,40 77.0112228,31.532 C77.0112228,25.5555833 77.0088328,23.9315833 77.0088328,19.3894583 C77.0088328,19.3894583 76.3886176,11 85.5424683,11 L105.68572,11 C114.679438,11 114.031737,19.5018333 114.031737,19.5018333 L114.031737,24.2916667 C114.031737,24.2916667 112.854643,29 108.066199,29 L84.1562455,29 C84.1562455,29 84.1251749,31.4292917 84.1562455,31.58275 C84.1562455,31.58275 84.1191998,33.939 86.5271645,33.939 C88.0460345,33.939 111.641698,33.9583333 111.641698,33.9583333 C111.641698,33.9583333 112.854643,33.9776667 112.854643,35.186 C112.854643,35.6077083 112.860618,38.3530417 112.861813,38.7723333 C112.863008,38.8847083 112.855838,40 111.622578,40 Z M84,23 C84,23 104.771263,22.9976009 105.535035,22.9976009 C106.690854,22.9976009 106.690854,21.8004265 106.690854,21.8004265 C106.690854,20.9079438 106.705197,20.3357473 106.709978,19.4012795 C106.715954,18.2196997 105.458539,17.0021326 104.375631,17.0021326 C103.173198,17.0021326 87.5702476,16.9973343 86.4096482,17.0021326 C85.1582089,17.0057313 84.004781,18.2017061 84.004781,19.4192731 C84.004781,19.8931047 84,23 84,23 Z M30.0064043,0 C30.5197641,0.00121263566 34.2740076,0.00121263566 34.7885668,0 C34.7885668,0 36,0 36,1.21263566 L36,33.9732008 C36,33.9732008 35.9940028,40 30.0100026,40 C25.1774636,40 24.8584129,39.9745347 13.4433538,39.9854484 C2.02949406,39.9975747 0.0120379823,30.1715879 4.35941928e-05,25.4823258 C-0.0107513551,20.7930637 1.97671875,10.9100831 13.2646374,10.913721 C18.5205782,10.9161462 23.7501314,10.9125083 28.7997688,10.913721 C28.7997688,10.913721 28.8045666,1.34966349 28.8045666,1.25022737 C28.8045666,0 30.0064043,0 30.0064043,0 Z M27.7755839,33.9927307 C29.0195721,33.9927307 28.9999817,32.807361 28.9999817,32.807361 C28.9999817,31.7277627 28.9950841,17.0133734 28.9950841,17.0133734 C28.9950841,17.0133734 19.2672435,17 15.8621932,17 C12.4546941,17 6.99632866,18.0431253 7.00000185,25.5772136 C7.00245065,33.1100861 11.9135103,33.9842203 15.9197399,33.9951622 C19.9235208,34.0073198 26.4409903,33.9927307 27.7755839,33.9927307 Z" id="logo"></path>
                </g>
            </g>
        </g>
    </g>
</svg>