<?xml version="1.0" encoding="UTF-8"?>
<svg width="20px" height="20px" viewBox="0 0 20 20" version="1.1" xmlns="http://www.w3.org/2000/svg" xmlns:xlink="http://www.w3.org/1999/xlink">
    <!-- Generator: Sketch 47.1 (45422) - http://www.bohemiancoding.com/sketch -->
    <title>mac</title>
    <desc>Created with Sketch.</desc>
    <defs></defs>
    <g id="Page-1" stroke="none" stroke-width="1" fill="none" fill-rule="evenodd">
        <g id="安装器15" transform="translate(-541.000000, -427.000000)" fill="#FFFFFF">
            <g id="ISO安装器11-Copy-2" transform="translate(7.000000, 6.000000)">
                <g id="Group" transform="translate(513.000000, 321.000000)">
                    <g id="Group-14">
                        <g id="Group-2" transform="translate(21.000000, 100.000000)">
                            <path d="M16.3942315,13.6826927 C16.1442303,14.4839773 15.7500032,15.2852512 15.2115395,16.0865383 C14.3846111,17.342955 13.5609028,17.9711538 12.7403843,17.9711538 C12.4262802,17.9711538 11.9775673,17.8685908 11.3942303,17.6634615 C10.8429469,17.4583322 10.3589777,17.3557693 9.94230748,17.3557693 C9.55128099,17.3557693 9.09615604,17.4615374 8.57692401,17.6730769 C8.05768983,17.8910267 7.63461627,18 7.30769256,18 C6.33332912,18 5.36859552,17.1698801 4.41346162,15.5096152 C3.47114913,13.836529 3,12.2243664 3,10.6730759 C3,9.21152965 3.36217593,8.01282373 4.08653855,7.07692152 C4.8044909,6.15384116 5.714738,5.69230637 6.81730699,5.69230637 C7.27884825,5.69230637 7.84614982,5.78846053 8.51923109,5.98076885 C9.18590036,6.17307716 9.62820346,6.26922917 9.84615332,6.26922917 C10.134618,6.26922917 10.5929457,6.16025747 11.2211537,5.94230761 C11.8750033,5.72435775 12.4294852,5.6153839 12.8846166,5.6153839 C13.64744,5.6153839 14.3301253,5.82371468 14.9326939,6.24038486 C15.2660275,6.47115441 15.5993589,6.79166397 15.9326924,7.20192215 C15.4262801,7.63141202 15.0608995,8.00961235 14.8365398,8.33653821 C14.4198696,8.93910471 14.2115388,9.60256044 14.2115388,10.3269226 C14.2115388,11.1217974 14.4326914,11.8365341 14.875001,12.4711541 C15.3173106,13.105772 15.8237164,13.5096139 16.3942315,13.6826927 L16.3942315,13.6826927 Z M12.7788476,2.40384618 C12.7788476,2.79487266 12.6858984,3.23076592 12.4999999,3.71153671 C12.3076916,4.19230966 12.0096187,4.63461277 11.6057703,5.0384611 C11.2596149,5.3846165 10.9134638,5.6153839 10.5673084,5.7307676 C10.3301269,5.80128237 9.99679763,5.85576822 9.56730776,5.89422946 C9.58653946,4.93909771 9.83653639,4.1153872 10.3173072,3.42307639 C10.7916703,2.73717543 11.5929442,2.26282094 12.7211547,2 C12.7275646,2.01922954 12.7355769,2.05448585 12.7451938,2.10576893 C12.7548086,2.15704986 12.7628209,2.19230616 12.7692307,2.21153786 C12.7692307,2.2371794 12.7708332,2.26922863 12.7740381,2.30769202 C12.7772452,2.34615325 12.7788476,2.37820464 12.7788476,2.40384618 L12.7788476,2.40384618 Z" id="mac"></path>
                        </g>
                    </g>
                </g>
            </g>
        </g>
    </g>
</svg>