<?xml version="1.0" encoding="UTF-8"?>
<svg width="24px" height="24px" viewBox="0 0 24 24" version="1.1" xmlns="http://www.w3.org/2000/svg" xmlns:xlink="http://www.w3.org/1999/xlink">
    <!-- Generator: Sketch 48.2 (47327) - http://www.bohemiancoding.com/sketch -->
    <title>partition_delete_normal</title>
    <desc>Created with Sketch.</desc>
    <defs>
        <path d="M19.9870679,11 L11,11 L11,19.9870679 C10.8344194,19.9956538 10.6677173,20 10.5,20 C5.25329488,20 1,15.7467051 1,10.5 C1,5.25329488 5.25329488,1 10.5,1 C15.7467051,1 20,5.25329488 20,10.5 C20,10.6677173 19.9956538,10.8344194 19.9870679,11 Z M13,17 L22,17 L22,18 L13,18 L13,17 Z" id="path-1"></path>
    </defs>
    <g id="Symbols" stroke="none" stroke-width="1" fill="none" fill-rule="evenodd">
        <g id="partition_delete_normal">
            <g id="Combined-Shape">
                <use fill-opacity="0.8" fill="#FFFFFF" fill-rule="evenodd" xlink:href="#path-1"></use>
                <path stroke-opacity="0.1" stroke="#000000" stroke-width="1" d="M11.5,11.5 L11.5,20.4618131 L11.0258918,20.4863971 C10.8511891,20.495456 10.6758531,20.5 10.5,20.5 C4.9771525,20.5 0.5,16.0228475 0.5,10.5 C0.5,4.9771525 4.9771525,0.5 10.5,0.5 C16.0228475,0.5 20.5,4.9771525 20.5,10.5 C20.5,10.6758531 20.495456,10.8511891 20.4863971,11.0258918 L20.4618131,11.5 L11.5,11.5 Z M12.5,16.5 L22.5,16.5 L22.5,18.5 L12.5,18.5 L12.5,16.5 Z"></path>
            </g>
        </g>
    </g>
</svg>