<?xml version="1.0" encoding="UTF-8"?>
<svg width="36px" height="36px" viewBox="0 0 36 36" version="1.1" xmlns="http://www.w3.org/2000/svg" xmlns:xlink="http://www.w3.org/1999/xlink">
    <!-- Generator: Sketch 47.1 (45422) - http://www.bohemiancoding.com/sketch -->
    <title>QR_normal</title>
    <desc>Created with Sketch.</desc>
    <defs>
        <path d="M0.846728932,-5.68434189e-14 L31.9950934,-5.68434189e-14 C34.2069422,-5.68434189e-14 36,1.78855334 36,3.99536694 L36,35.1532711 L0.846728932,-5.68434189e-14 L0.846728932,-5.68434189e-14 Z" id="path-1"></path>
    </defs>
    <g id="Page-1" stroke="none" stroke-width="1" fill="none" fill-rule="evenodd">
        <g id="Artboard" transform="translate(-68.000000, -22.000000)">
            <g id="QR_normal" transform="translate(68.000000, 22.000000)">
                <mask id="mask-2" fill="white">
                    <use xlink:href="#path-1"></use>
                </mask>
                <use id="Mask" fill-opacity="0" fill="#FFFFFF" xlink:href="#path-1"></use>
                <path d="M18,19 L18,22 L15,22 L15,19 L18,19 Z M18,8 L18,11 L15,11 L15,8 L18,8 Z M29,8 L29,11 L26,11 L26,8 L29,8 Z M14,23 L19,23 L19,18 L14,18 L14,23 Z M14,12 L19,12 L19,7 L14,7 L14,12 Z M25,12 L30,12 L30,7 L25,7 L25,12 Z M21,16 L21,25 L12,25 L12,16 L21,16 Z M29,23 L29,25 L27,25 L27,23 L29,23 Z M32,23 L32,25 L30,25 L30,23 L32,23 Z M32,16 L32,21 L27,21 L27,20 L25,20 L25,25 L23,25 L23,16 L28,16 L28,18 L30,18 L30,16 L32,16 Z M21,5 L21,14 L12,14 L12,5 L21,5 Z M32,5 L32,14 L23,14 L23,5 L32,5 Z" id="Page-1" fill="#FFFFFF" opacity="0.5" mask="url(#mask-2)"></path>
                <polygon id="Path-976" fill="#FFFFFF" opacity="0.1" points="0 0 36 36 0 36"></polygon>
            </g>
        </g>
    </g>
</svg>