<?xml version="1.0" encoding="UTF-8" standalone="no"?>
<svg width="128px" height="128px" viewBox="0 0 128 128" version="1.1" xmlns="http://www.w3.org/2000/svg" xmlns:xlink="http://www.w3.org/1999/xlink">
    <!-- Generator: Sketch 3.8.3 (29802) - http://www.bohemiancoding.com/sketch -->
    <title>drive-harddisk-linux-128px</title>
    <desc>Created with Sketch.</desc>
    <defs>
        <filter x="-50%" y="-50%" width="200%" height="200%" filterUnits="objectBoundingBox" id="filter-1">
            <feOffset dx="0" dy="3" in="SourceAlpha" result="shadowOffsetOuter1"></feOffset>
            <feGaussianBlur stdDeviation="3.5" in="shadowOffsetOuter1" result="shadowBlurOuter1"></feGaussianBlur>
            <feColorMatrix values="0 0 0 0 0   0 0 0 0 0   0 0 0 0 0  0 0 0 0.2 0" type="matrix" in="shadowBlurOuter1" result="shadowMatrixOuter1"></feColorMatrix>
            <feMerge>
                <feMergeNode in="shadowMatrixOuter1"></feMergeNode>
                <feMergeNode in="SourceGraphic"></feMergeNode>
            </feMerge>
        </filter>
        <linearGradient x1="50%" y1="0.410554847%" x2="50%" y2="100%" id="linearGradient-2">
            <stop stop-color="#9DDA00" offset="0%"></stop>
            <stop stop-color="#73C300" offset="100%"></stop>
        </linearGradient>
    </defs>
    <g id="Page-1" stroke="none" stroke-width="1" fill="none" fill-rule="evenodd">
        <g id="drive-harddisk-linux-128px">
            <g id="Group" filter="url(#filter-1)" transform="translate(19.000000, 11.000000)">
                <path d="M9.93406957e-09,3.99609375 C9.93406957e-09,1.78911211 1.79778418,-1.89549354e-09 3.99793938,-1.89549354e-09 L86.0020632,-1.89549354e-09 C88.2100641,-1.89549354e-09 90.0000025,1.79532687 90.0000024,3.99609375 L90,93 L9.93406957e-09,93 L9.93406957e-09,3.99609375 Z" id="Rectangle-1" fill="url(#linearGradient-2)"></path>
                <path d="M57.12815,44.2382969 C57.12815,43.9386734 56.6704036,43.5891219 55.7548885,43.1896257 C55.8214721,42.9399413 55.8838946,42.7110681 55.9421504,42.502995 C56.0004118,42.2949274 56.0420286,42.0785376 56.0669954,41.85382 C56.0919622,41.6291023 56.1169289,41.4501627 56.1419013,41.317001 C56.166868,41.1838337 56.1710292,40.9965718 56.1543847,40.7552097 C56.1377402,40.5138475 56.1294179,40.3515579 56.1294179,40.2683298 C56.1294179,40.1851017 56.1002844,40.0020009 56.0420286,39.7190218 C55.9837673,39.4360484 55.9504782,39.265431 55.9421504,39.2071752 C55.9338281,39.1489138 55.8922169,38.9408463 55.817311,38.5829614 C55.7424051,38.225082 55.6966327,38.0045311 55.6799826,37.921303 C55.5135263,37.1223106 55.1223636,36.2650736 54.506472,35.3495585 C53.8905804,34.434049 53.2913501,33.8098463 52.7087475,33.4769338 C53.1082437,33.8098463 53.5826402,34.5006326 54.1319481,35.5493094 C55.5801211,38.2459045 56.0295452,40.5596143 55.4802373,42.4905116 C55.2971365,43.1563367 54.8810014,43.5058938 54.2318208,43.5391828 C53.7158019,43.6057664 53.3953783,43.4517935 53.2705389,43.0772697 C53.1456939,42.7027403 53.0791158,42.0077985 53.0707936,40.9924107 C53.0624657,39.9770229 52.9667598,39.0864969 52.7836534,38.3207936 C52.6338416,37.671613 52.4715521,37.0973494 52.2967735,36.5979806 C52.121995,36.0986118 51.9596999,35.7199268 51.8098881,35.4619201 C51.6600763,35.2039135 51.5310758,35.000007 51.4228809,34.8501953 C51.3146804,34.7003835 51.2064855,34.5755441 51.0982906,34.4756658 C50.9900957,34.3757932 50.9276732,34.3175374 50.9110287,34.3008873 C50.6779888,33.2688606 50.4199821,32.4116181 50.1370086,31.7291484 C49.8540352,31.0466788 49.6085119,30.5806046 49.4004444,30.3309202 C49.1923712,30.0812357 48.9967871,29.8065846 48.8136863,29.5069666 C48.6305855,29.2073431 48.5057405,28.8744361 48.4391624,28.5082289 C48.3725788,28.1586719 48.4225123,27.7134089 48.5889686,27.1724232 C48.7554249,26.6314375 48.7928806,26.2194635 48.7013302,25.9364901 C48.6097742,25.653511 48.2394171,25.4454435 47.5902365,25.3122818 C47.3405521,25.2623427 46.9701894,25.1125365 46.4791428,24.8628465 C45.9880962,24.6131621 45.6926394,24.4800004 45.5927668,24.4633559 C45.4595995,24.4467114 45.3680491,24.2303216 45.3181156,23.8141753 C45.2681765,23.3980346 45.3347601,22.9735773 45.5178609,22.5407921 C45.7009617,22.1080068 46.0005796,21.8832892 46.4167203,21.8666447 C47.0326119,21.8167112 47.4570693,22.06639 47.6901092,22.6156979 C47.9231491,23.1650003 47.9564381,23.647719 47.7899818,24.0638597 C47.606881,24.3801278 47.5902365,24.6006787 47.7400483,24.7255237 C47.8898545,24.8503631 48.1395389,24.8545243 48.489096,24.7380071 C48.7054914,24.6714235 48.8136863,24.3718055 48.8136863,23.8391477 L48.8136863,22.9153159 C48.7304581,22.415947 48.6181021,21.9998119 48.4766126,21.6668994 C48.3351231,21.3339868 48.1603501,21.0801413 47.952277,20.9053628 C47.7442038,20.7305842 47.5486253,20.6057448 47.3655189,20.5308389 C47.1824181,20.455933 46.957706,20.3935105 46.6913771,20.343577 C44.9102916,20.4767387 44.1695662,21.5919823 44.4691897,23.6893359 C44.4691897,23.9390203 44.4608674,24.0638597 44.4442229,24.0638597 C44.2944112,23.914048 44.0488935,23.8266643 43.7076531,23.8016919 C43.3664183,23.7767252 43.0917727,23.7808863 42.8836995,23.8141753 C42.6756264,23.8474699 42.5466258,23.8058531 42.4966923,23.6893359 C42.5133368,22.7405318 42.3801696,21.9914897 42.0971961,21.4421817 C41.8142227,20.8928794 41.4396989,20.6099059 40.973619,20.5932614 C40.5241893,20.5766113 40.1787934,20.8054901 39.9374312,21.2798866 C39.6960691,21.7542887 39.5587463,22.2494908 39.5254572,22.7655041 C39.5088071,23.0151941 39.5379406,23.3231287 39.6128465,23.6893359 C39.6877468,24.0555431 39.7959473,24.3676444 39.9374312,24.6256511 C40.0789207,24.8836577 40.2079213,24.9960138 40.324444,24.9627248 C40.4909003,24.9127856 40.624062,24.7962685 40.7239346,24.6131677 C40.7905182,24.4633559 40.7322625,24.3967723 40.5491561,24.4134168 C40.4326389,24.4134168 40.3036384,24.2927385 40.1621489,24.0513763 C40.0206594,23.8100142 39.9415923,23.5312019 39.9249478,23.2149394 C39.9083033,22.8487323 39.9832092,22.5407921 40.1496655,22.2911076 C40.3161218,22.0414232 40.5990896,21.9249061 40.9985858,21.9415506 C41.2815648,21.9415506 41.5062769,22.1163291 41.6727332,22.4658862 C41.8391894,22.8154432 41.9182565,23.1400279 41.9099342,23.4396515 C41.9016119,23.739275 41.8891286,23.9223758 41.8724785,23.9889538 C41.5062769,24.2386439 41.2482702,24.4800004 41.098464,24.7130403 C40.9652968,24.9127856 40.7364236,25.1083698 40.4118333,25.2997928 C40.087243,25.4912215 39.9166256,25.5952553 39.8999811,25.6118998 C39.6835857,25.8449397 39.5545851,26.0696517 39.5129683,26.2860471 C39.471357,26.5024369 39.5337795,26.6522487 39.7002358,26.7354768 C39.9332701,26.8686441 40.1413376,27.0309337 40.324444,27.2223567 C40.5075448,27.4137853 40.6407065,27.5719138 40.7239346,27.6967588 C40.8071628,27.8215982 40.9611357,27.9297931 41.1858533,28.0213491 C41.4105654,28.1128995 41.7060222,28.1669941 42.0722294,28.1836386 C42.8545716,28.2169333 43.7034919,28.0920938 44.6190015,27.8091148 C44.6522905,27.7924703 44.8437135,27.7342089 45.1932706,27.6343363 C45.5428333,27.5344636 45.8299678,27.4470744 46.0546799,27.3721685 C46.2793975,27.2972626 46.5249152,27.1890677 46.7912498,27.0475782 C47.0575787,26.9060943 47.2323572,26.7604436 47.3155854,26.6106318 C47.4653971,26.3775975 47.6318478,26.3110139 47.8149486,26.4108865 C47.8981767,26.4608257 47.952277,26.5315648 47.9772437,26.6231208 C48.0022161,26.7146712 47.9772437,26.8145439 47.9023379,26.9227388 C47.8274376,27.0309337 47.6901092,27.1100007 47.4903639,27.1599398 C47.1574513,27.2598124 46.687216,27.4387521 46.0796522,27.6967588 C45.4720829,27.9547655 45.0933979,28.1170606 44.9435918,28.1836386 C44.211183,28.4999067 43.6285916,28.6913297 43.1958064,28.7579134 C42.7796601,28.8411415 42.1221685,28.824497 41.2233035,28.7079742 C41.0568472,28.6746852 40.9819413,28.6913297 40.9985858,28.7579134 C41.0152359,28.824497 41.1567198,28.9826254 41.4230487,29.2323098 C41.8391894,29.6151615 42.3968141,29.7982623 43.0959282,29.7816178 C43.3789072,29.7649733 43.6785252,29.7067119 43.9947932,29.6068393 C44.3110613,29.506961 44.6106792,29.3904439 44.8936526,29.2572822 C45.1766261,29.1241149 45.4554384,28.9784699 45.7300952,28.8203359 C46.0047464,28.6622018 46.2544252,28.5207123 46.4791428,28.3958729 C46.7038605,28.2710279 46.9077669,28.1711553 47.0908677,28.0962494 C47.2739685,28.0213491 47.4196191,28.0005379 47.527814,28.0338325 C47.6360089,28.0671215 47.7067537,28.1586719 47.7400483,28.3084836 C47.7400483,28.3417727 47.7317205,28.3792284 47.7150759,28.4208397 C47.6984314,28.4624565 47.6651424,28.5040678 47.6152033,28.5456847 C47.5652698,28.587296 47.5153306,28.6247461 47.4653915,28.6580407 C47.415458,28.6913297 47.3447132,28.7329466 47.2531628,28.7828801 C47.1616125,28.8328192 47.0867066,28.8702694 47.0284452,28.8952418 C46.9701894,28.9202085 46.8869613,28.9618198 46.7787664,29.0200812 C46.6705659,29.0783425 46.5914989,29.1157927 46.5415653,29.1324372 C46.0754855,29.3654771 45.5137054,29.7316787 44.8562025,30.2310475 C44.1986941,30.7304163 43.6452362,31.0882901 43.1958064,31.3046855 C42.7463711,31.5210809 42.3385583,31.5294031 41.9723567,31.3296522 C41.622794,31.1465515 41.098464,30.5389933 40.3993499,29.5069666 C40.0331427,28.9909477 39.8250752,28.8078469 39.7751361,28.9576587 C39.7584916,29.0075978 39.7501693,29.0908259 39.7501693,29.2073431 C39.7501693,29.6234838 39.6253299,30.0937191 39.3756455,30.6180547 C39.1259611,31.1423959 38.8804378,31.6043034 38.6390756,32.0037996 C38.3977134,32.4032958 38.2229405,32.8860145 38.11474,33.451967 C38.0065451,34.0179195 38.1022566,34.5422495 38.4018802,35.0249738 C38.0190285,35.1248464 37.4988596,35.8738885 36.8413567,37.2721224 C36.1838539,38.6703618 35.7885244,39.8438612 35.6553572,40.7926654 C35.6220681,41.0922833 35.6095848,41.6665525 35.617907,42.5154784 C35.6262293,43.3644099 35.5804569,43.8554509 35.4805786,43.9886125 C35.347417,44.3881087 35.1060548,44.4130755 34.7564977,44.0635184 C34.2238343,43.5475051 33.9242219,42.7651684 33.8576383,41.7164916 C33.8243437,41.2504174 33.8576383,40.7843431 33.9575109,40.3182633 C34.0240946,40.0019953 34.0157723,39.8521891 33.9325442,39.8688336 L33.8326659,39.9936786 C33.2334245,41.0756444 33.3166526,42.4572114 34.0823504,44.1384243 C34.1655785,44.3381696 34.373646,44.5712095 34.7065586,44.8375384 C35.0394768,45.1038673 35.2392165,45.2703236 35.3058001,45.3369073 C35.6387126,45.7197533 36.5042775,46.4729621 37.9025113,47.5965448 C39.3007452,48.7201219 40.0747596,49.3568135 40.2245714,49.5066197 C40.4909003,49.7563097 40.6365453,50.0725722 40.6615177,50.4554182 C40.6864845,50.8382699 40.5699673,51.1961437 40.3119606,51.5290618 C40.0539484,51.8619744 39.675269,52.0533974 39.1759002,52.1033309 C39.3090618,52.3530153 39.550424,52.7233781 39.8999811,53.2144246 C40.2495381,53.7054707 40.4825725,54.154897 40.5990952,54.5627155 C40.7156124,54.9705339 40.7738737,55.5572847 40.7738737,56.3229847 C41.5395715,55.9234891 41.5978329,55.1578003 40.9486523,54.0258954 C40.8820686,53.8927303 40.7946794,53.759567 40.6864845,53.626402 C40.5782896,53.4932364 40.4992226,53.3933643 40.4492834,53.3267812 C40.3993499,53.2601987 40.3826998,53.2102635 40.3993499,53.1769689 C40.4492834,53.0937408 40.5574783,53.0146793 40.7239346,52.9397735 C40.8903909,52.8648676 41.0568472,52.8856732 41.2233035,53.0021904 C41.9890012,53.8677669 43.3705738,54.1673843 45.3680491,53.9010537 C47.5819255,53.6513687 49.0550428,52.9272957 49.7874516,51.7288071 C50.1703033,51.096271 50.4532711,50.8465922 50.6363775,50.9797538 C50.8361228,51.0796321 50.9193509,51.5124117 50.8860619,52.2781095 C50.8694118,52.6942502 50.6779943,53.4599407 50.3117872,54.5751994 C50.1619754,54.95805 50.1120419,55.2701513 50.1619754,55.5115129 C50.2119145,55.7528751 50.4116598,55.8818773 50.7612169,55.8985229 C50.811156,55.5822554 50.9318343,54.9414071 51.1232573,53.975959 C51.314686,53.0105126 51.427042,52.261465 51.460331,51.7288071 C51.4936256,51.37925 51.4395254,50.7675308 51.2980359,49.8936325 C51.156552,49.0197342 51.0941295,48.2124308 51.110774,47.4716998 C51.1274185,46.7309688 51.3188415,46.1442163 51.6850487,45.7114311 C51.9347331,45.4118075 52.3591905,45.2620014 52.9584319,45.2620014 C52.9750765,44.6461098 53.262211,44.2050079 53.8198412,43.938679 C54.3774714,43.6723445 54.9808685,43.5849608 55.6300491,43.6765112 C56.2792297,43.7680616 56.7785929,43.9553235 57.12815,44.2382969 L57.12815,44.2382969 Z M41.4480211,23.5894633 C41.4979546,23.3064842 41.477149,23.0568054 41.3855986,22.84041 C41.2940482,22.6240202 41.1983367,22.4991752 41.098464,22.4658862 C40.9486523,22.4325971 40.8737464,22.4908529 40.8737464,22.6406647 C40.9070354,22.7238928 40.9486523,22.773832 40.9985858,22.7904765 C41.1650421,22.7904765 41.2233035,22.9153159 41.1733643,23.1650003 C41.1234308,23.4979129 41.1900088,23.6643691 41.3731152,23.6643691 C41.4230487,23.6643691 41.4480211,23.6393968 41.4480211,23.5894633 L41.4480211,23.5894633 Z M47.4653915,23.1899671 C47.4653915,23.0068663 47.4237803,22.8445711 47.3405521,22.7030872 C47.257324,22.5615977 47.1657736,22.4575639 47.0659009,22.3909803 C46.9660283,22.3243967 46.8911224,22.2994299 46.8411833,22.3160744 C46.6081434,22.3327189 46.5498876,22.3909803 46.6664047,22.4908529 C46.6996994,22.5074974 46.7329884,22.5241475 46.7662774,22.5407921 C46.9993173,22.6073757 47.1491291,22.8653768 47.2157127,23.3148121 C47.2157127,23.3647456 47.2822907,23.3481011 47.415458,23.2648729 L47.4653915,23.1899671 Z M63.6948284,51.4666393 C63.8779291,51.6747069 63.9778018,51.8744522 63.9944519,52.0658808 C64.0110964,52.2573038 63.9902908,52.4445657 63.9320294,52.6276665 C63.873768,52.8107673 63.7447675,52.9938681 63.5450166,53.1769689 C63.3452713,53.3600736 63.1496871,53.5223665 62.9582641,53.6638543 C62.7668354,53.8053422 62.5171566,53.9593123 62.2092108,54.1257691 C61.901265,54.2922254 61.6391028,54.4295504 61.4227074,54.537747 C61.206312,54.6459436 60.9399887,54.7749458 60.6237206,54.9247565 C60.3074526,55.0745677 60.0827405,55.1827626 59.9495733,55.2493451 C59.3170372,55.5656126 58.6054508,56.031684 57.8147807,56.6475734 C57.0241106,57.2634627 56.3957468,57.7961161 55.929667,58.2455486 C55.6466936,58.5118793 55.0807467,58.674172 54.2318208,58.7324318 C53.3828893,58.7906916 52.6421695,58.6700124 52.0096334,58.3703906 C51.7100154,58.2205796 51.4644922,58.024996 51.2730691,57.7836338 C51.0816461,57.5422722 50.9443177,57.330043 50.8610895,57.1469411 C50.7778614,56.9638386 50.5947606,56.8015457 50.3117872,56.6600579 C50.0288137,56.5185695 49.6376454,56.4395041 49.1382766,56.4228585 C48.4058678,56.4062129 47.3239132,56.3978901 45.8923847,56.3978901 C45.5761223,56.3978901 45.1017258,56.410374 44.4691897,56.4353424 C43.8366536,56.4603109 43.3539405,56.4811176 43.0210279,56.4977633 C42.2886192,56.5144089 41.6269608,56.6392494 41.0360415,56.8722888 C40.4451223,57.1053281 39.9998537,57.3550092 39.7002358,57.6213398 C39.4006122,57.8876704 39.0385718,58.1248675 38.6141088,58.332938 C38.1896459,58.5410088 37.7443829,58.6367198 37.2783031,58.6200742 C36.7955787,58.6034285 35.8717581,58.3454247 34.5068133,57.8460552 C33.1418685,57.3466853 31.9267578,56.9888087 30.8614331,56.7724156 C30.5451656,56.7058325 30.1207077,56.6267672 29.5880471,56.5352162 C29.0553858,56.4436647 28.6392507,56.3687605 28.3396289,56.3105008 C28.040007,56.2522411 27.7112601,56.1731752 27.3533785,56.0733014 C26.9954969,55.9734271 26.7166863,55.8527483 26.5169382,55.7112599 C26.3171904,55.569772 26.1757044,55.4074791 26.0924762,55.2243772 C25.9260195,54.8415266 25.9842785,54.2880671 26.2672547,53.5639811 C26.5502306,52.8398952 26.7000396,52.38631 26.7166852,52.2032036 C26.7333308,51.9368747 26.7000401,51.6039677 26.616812,51.2044715 C26.5335833,50.8049753 26.4503563,50.4512627 26.3671281,50.1433169 C26.2838998,49.8353711 26.2464477,49.5315921 26.2547705,49.2319685 C26.2630933,48.9323506 26.3504817,48.7076329 26.5169382,48.5578267 C26.7499776,48.3580758 27.2243718,48.2415587 27.9401349,48.2082697 C28.655898,48.1749751 29.1552607,48.0751024 29.4382364,47.9086461 C29.9376064,47.6090226 30.2871601,47.3177325 30.4869076,47.0347535 C30.6866557,46.75178 30.7865283,46.3273227 30.7865283,45.7613702 C30.7865283,46.2357674 31.2276364,45.012317 31.1610538,44.6128208 C31.1111164,44.3464918 31.0944713,44.0302294 31.111117,43.6640278 C31.1277626,43.1813035 31.2109896,42.7485183 31.3608003,42.3656722 C31.5106115,41.9828205 31.7103568,41.5916522 31.9600412,41.192156 C32.2097256,40.7926598 32.3928264,40.4431083 32.5093436,40.1434848 C32.6425108,39.7939277 32.8630617,39.1946918 33.1710075,38.3457659 C33.4789533,37.4968344 33.724471,36.847665 33.9075718,36.3982297 C34.0906782,35.9488 34.340357,35.4411145 34.6566251,34.875162 C34.9728931,34.3092096 35.2974778,33.8597854 35.6303904,33.5268729 C37.461415,31.1465403 38.4934305,29.5236167 38.7264649,28.6580407 C38.5267196,26.793727 38.3935579,24.2136883 38.3269743,20.9178461 C38.2936797,19.4197396 38.493425,18.1588509 38.9262158,17.1351409 C39.359001,16.1114309 40.2412103,15.2417105 41.5728605,14.5259463 C42.2220411,14.1763892 43.0876003,14.0016107 44.1695718,14.0016107 C45.0517923,13.9849662 45.933996,14.0973222 46.8162165,14.3386844 C47.698437,14.5800465 48.4391568,14.9254369 49.0383983,15.3748722 C49.9872025,16.0739863 50.7487279,17.0851962 51.3230082,18.4085298 C51.897283,19.7318577 52.1428007,20.9594574 52.0595725,22.0913623 C51.9763444,23.672697 52.2260232,25.4537546 52.8086258,27.434591 C53.3745782,29.3155492 54.481494,31.1299014 56.1294179,32.8776923 C57.0449274,33.8597854 57.8730365,35.2163857 58.6137675,36.9475377 C59.3544985,38.6786841 59.8497006,40.2683186 60.099385,41.7164916 C60.2325523,42.5321285 60.2741636,43.2353981 60.2242245,43.8263174 C60.1742909,44.4172422 60.0744183,44.8791497 59.9246065,45.2120623 C59.7747947,45.5449748 60.1409963,46.8849473 60.3740362,46.6851964 C60.3906807,47.2012153 60.4572644,47.6714451 60.5737815,48.095908 C60.6903043,48.5203766 60.8109826,48.8574447 60.9358276,49.1071291 C61.060667,49.3568135 61.2312844,49.594009 61.4476742,49.8187266 C61.6640696,50.0434443 61.8388481,50.2015727 61.9720098,50.2931231 C62.105177,50.3846791 62.2841167,50.492874 62.5088344,50.6177134 C62.7335464,50.7425584 62.8708748,50.8216198 62.9208083,50.8549144 C63.2537209,51.0546597 63.5117276,51.2585662 63.6948284,51.4666393 Z" id="Page-1" fill="#FFFFFF"></path>
                <path d="M9.93406957e-09,83.9962029 C9.93406957e-09,81.789161 1.79778413,80 3.99793927,80 L86.0020608,80 C88.2100616,80 90,81.7931891 90,83.9916352 L90,95.5 L9.93406957e-09,96.0000008 L9.93406957e-09,83.9962029 Z" id="Rectangle-3" fill="#FFFFFF"></path>
                <path d="M-7.01766822e-09,93.9962027 C-7.01766822e-09,91.7891609 1.79778416,90 3.99793936,90 L86.0020632,90 C88.2100641,90 90.0000025,91.7888304 90.0000025,93.9962028 L90.0000025,102.003797 C90.0000025,104.210839 88.2022184,106 86.0020632,106 L3.99793936,106 C1.78993842,106 -7.01766822e-09,104.21117 -7.01766822e-09,102.003797 L-7.01766822e-09,93.9962027 Z" id="Rectangle-1" fill="#DCDDDD"></path>
                <path d="M53,95 L56,95.0209171 L56,101 L53.0382048,101 L53.0382048,95.0209171 L53,95 Z M58,95 L61,95.0209171 L61,101 L58.0382048,101 L58.0382048,95.0209171 L58,95 Z M63,95 L66,95.0209171 L66,101 L63.0382048,101 L63.0382048,95.0209171 L63,95 Z M68,95 L71,95.0209171 L71,101 L68.0382048,101 L68.0382048,95.0209171 L68,95 Z M73,95 L76,95.0209171 L76,101 L73.0382048,101 L73.0382048,95.0209171 L73,95 Z M78,95 L81,95.0209171 L81,101 L78.0382048,101 L78.0382048,95.0209171 L78,95 Z" id="Combined-Shape" fill="#75C500"></path>
                <path d="M12,101 C13.6568542,101 15,99.6568542 15,98 C15,96.3431458 13.6568542,95 12,95 C10.3431458,95 9,96.3431458 9,98 C9,99.6568542 10.3431458,101 12,101 Z" id="Oval" fill="#75C600"></path>
            </g>
        </g>
    </g>
</svg>