<?xml version="1.0" encoding="UTF-8" standalone="no"?>
<svg width="128px" height="128px" viewBox="0 0 128 128" version="1.1" xmlns="http://www.w3.org/2000/svg" xmlns:xlink="http://www.w3.org/1999/xlink">
    <!-- Generator: Sketch 3.8.3 (29802) - http://www.bohemiancoding.com/sketch -->
    <title>drive-harddisk-deepin-128px</title>
    <desc>Created with Sketch.</desc>
    <defs>
        <filter x="-50%" y="-50%" width="200%" height="200%" filterUnits="objectBoundingBox" id="filter-1">
            <feOffset dx="0" dy="3" in="SourceAlpha" result="shadowOffsetOuter1"></feOffset>
            <feGaussianBlur stdDeviation="3.5" in="shadowOffsetOuter1" result="shadowBlurOuter1"></feGaussianBlur>
            <feColorMatrix values="0 0 0 0 0   0 0 0 0 0   0 0 0 0 0  0 0 0 0.2 0" type="matrix" in="shadowBlurOuter1" result="shadowMatrixOuter1"></feColorMatrix>
            <feMerge>
                <feMergeNode in="shadowMatrixOuter1"></feMergeNode>
                <feMergeNode in="SourceGraphic"></feMergeNode>
            </feMerge>
        </filter>
        <linearGradient x1="50%" y1="0.410554847%" x2="50%" y2="100%" id="linearGradient-2">
            <stop stop-color="#9DDA00" offset="0%"></stop>
            <stop stop-color="#73C300" offset="100%"></stop>
        </linearGradient>
    </defs>
    <g id="Page-1" stroke="none" stroke-width="1" fill="none" fill-rule="evenodd">
        <g id="drive-harddisk-deepin-128px">
            <g id="Group" filter="url(#filter-1)" transform="translate(19.000000, 11.000000)">
                <path d="M9.93406957e-09,3.99609375 C9.93406957e-09,1.78911211 1.79778418,-1.89549354e-09 3.99793938,-1.89549354e-09 L86.0020632,-1.89549354e-09 C88.2100641,-1.89549354e-09 90.0000025,1.79532687 90.0000024,3.99609375 L90,93 L9.93406957e-09,93 L9.93406957e-09,3.99609375 Z" id="Rectangle-1" fill="url(#linearGradient-2)"></path>
                <path d="M45,55.375 C43.8013846,55.375 42.6282115,55.2590962 41.4946154,55.0385962 C46.2608077,53.7042885 51.9231346,50.4080962 54.6143654,45.1160962 C54.6143654,45.1160962 60.1325192,36.0727692 50.7951923,27.9340577 C50.7951923,27.9340577 53.19525,31.7108269 53.26875,35.5102115 C53.26875,35.5102115 53.8397885,40.5053846 49.4213077,43.6263077 C42.90525,48.2257115 32.7537692,46.1535769 28.4342308,44.9606154 C27.2751923,42.5520769 26.625,39.8523654 26.625,37 C26.625,32.7313462 28.0808654,28.80475 30.5233269,25.6838269 C31.7275962,31.4988077 34.2152885,36.3554615 35.8888269,38.1590385 C38.1192692,40.5590962 41.4041538,43.1089808 45.6219231,42.0573654 C49.8368654,41.0029231 50.69625,36.3922115 50.69625,36.3922115 C51.6291346,32.4712692 50.3004808,27.8125 50.2298077,27.7135577 C50.1591346,27.6146154 49.5259038,27.5071923 49.5259038,27.5071923 C50.1874038,33.6840192 48.5619231,36.4176538 48.5619231,36.4176538 C46.1986154,41.2601731 42.7271538,39.7619038 42.7271538,39.7619038 C38.8684038,37.7943654 39.0493269,32.2507692 39.0493269,32.2507692 C38.93625,28.5333654 40.3525385,22.4780962 43.0833462,18.7239423 C43.71375,18.6589231 44.3526346,18.625 45,18.625 C47.4594231,18.625 49.8057692,19.1084038 51.9514038,19.9875769 C49.6729038,21.9014038 46.1618654,25.4831154 46.1618654,25.4831154 C40.4740962,30.7553269 41.5765962,35.1907692 41.5765962,35.1907692 C42.4812115,39.8495385 45.3024808,36.7116538 45.3024808,36.7116538 C48.2679231,33.6472692 48.0474231,27.5439423 48.0474231,27.5439423 C46.8459808,27.739 46.0855385,28.4005 46.0855385,28.4005 C45.9385385,32.4712692 43.5356538,34.9957115 43.5356538,34.9957115 C42.6055962,36.0247115 41.9440962,35.0437692 41.9440962,35.0437692 C41.4550385,34.3087692 42.4331538,33.7942692 42.4331538,33.7942692 C43.8070385,32.5928269 44.2169423,30.5433077 44.1999808,29.7743846 C44.1801923,29.0026346 44.5900962,28.7934423 44.5900962,28.7934423 C46.5293654,27.298 48.4658077,26.416 48.4658077,26.416 C51.06375,25.0901731 55.6970769,24.8696731 55.6970769,24.8696731 C56.7939231,24.9064231 57.8455385,24.8640192 58.7360192,24.7961731 C61.6223077,28.0414808 63.375,32.3157885 63.375,37 C63.375,47.1486538 55.1486538,55.375 45,55.375 M24,37 C24,48.598 33.402,58 45,58 C56.598,58 66,48.598 66,37 C66,25.402 56.598,16 45,16 C33.402,16 24,25.402 24,37 Z" id="Page-1" fill="#FFFFFF"></path>
                <path d="M9.93406957e-09,83.9962029 C9.93406957e-09,81.789161 1.79778413,80 3.99793927,80 L86.0020608,80 C88.2100616,80 90,81.7931891 90,83.9916352 L90,95.5 L9.93406957e-09,96.0000008 L9.93406957e-09,83.9962029 Z" id="Rectangle-3" fill="#FFFFFF"></path>
                <path d="M-7.01761138e-09,93.9962027 C-7.01761138e-09,91.7891609 1.79778416,90 3.99793936,90 L86.0020632,90 C88.2100641,90 90.0000025,91.7888304 90.0000025,93.9962028 L90.0000025,102.003797 C90.0000025,104.210839 88.2022184,106 86.0020632,106 L3.99793936,106 C1.78993842,106 -7.01761138e-09,104.21117 -7.01761138e-09,102.003797 L-7.01761138e-09,93.9962027 Z" id="Rectangle-1" fill="#DCDDDD"></path>
                <path d="M53,95 L56,95.0209171 L56,101 L53.0382048,101 L53.0382048,95.0209171 L53,95 Z M58,95 L61,95.0209171 L61,101 L58.0382048,101 L58.0382048,95.0209171 L58,95 Z M63,95 L66,95.0209171 L66,101 L63.0382048,101 L63.0382048,95.0209171 L63,95 Z M68,95 L71,95.0209171 L71,101 L68.0382048,101 L68.0382048,95.0209171 L68,95 Z M73,95 L76,95.0209171 L76,101 L73.0382048,101 L73.0382048,95.0209171 L73,95 Z M78,95 L81,95.0209171 L81,101 L78.0382048,101 L78.0382048,95.0209171 L78,95 Z" id="Combined-Shape" fill="#75C500"></path>
                <path d="M12,101 C13.6568542,101 15,99.6568542 15,98 C15,96.3431458 13.6568542,95 12,95 C10.3431458,95 9,96.3431458 9,98 C9,99.6568542 10.3431458,101 12,101 Z" id="Oval" fill="#75C600"></path>
            </g>
        </g>
    </g>
</svg>