<?xml version="1.0" encoding="UTF-8" standalone="no"?>
<svg width="32px" height="32px" viewBox="0 0 32 32" version="1.1" xmlns="http://www.w3.org/2000/svg" xmlns:xlink="http://www.w3.org/1999/xlink">
    <!-- Generator: Sketch 3.8.3 (29802) - http://www.bohemiancoding.com/sketch -->
    <title>drive-nstall-here-32px</title>
    <desc>Created with Sketch.</desc>
    <defs>
        <filter x="-50%" y="-50%" width="200%" height="200%" filterUnits="objectBoundingBox" id="filter-1">
            <feOffset dx="0" dy="1" in="SourceAlpha" result="shadowOffsetOuter1"></feOffset>
            <feGaussianBlur stdDeviation="0.5" in="shadowOffsetOuter1" result="shadowBlurOuter1"></feGaussianBlur>
            <feColorMatrix values="0 0 0 0 0   0 0 0 0 0   0 0 0 0 0  0 0 0 0.2 0" type="matrix" in="shadowBlurOuter1" result="shadowMatrixOuter1"></feColorMatrix>
            <feMerge>
                <feMergeNode in="shadowMatrixOuter1"></feMergeNode>
                <feMergeNode in="SourceGraphic"></feMergeNode>
            </feMerge>
        </filter>
        <linearGradient x1="50%" y1="0.410554847%" x2="50%" y2="100%" id="linearGradient-2">
            <stop stop-color="#FF9123" offset="0%"></stop>
            <stop stop-color="#F76C1C" offset="100%"></stop>
        </linearGradient>
    </defs>
    <g id="Page-1" stroke="none" stroke-width="1" fill="none" fill-rule="evenodd">
        <g id="drive-nstall-here-32px">
            <g id="Group-2" filter="url(#filter-1)" transform="translate(5.000000, 3.000000)">
                <path d="M9.93406957e-09,1.00307054 C9.93406957e-09,0.449089968 0.439458363,-1.38311123e-08 1.00246171,-1.38311123e-08 L20.9975389,-1.38311123e-08 C21.5511832,-1.38311123e-08 22.0000006,0.438917742 22.0000006,1.00307054 L22,23 L9.93406957e-09,23 L9.93406957e-09,1.00307054 Z" id="Rectangle-1" fill="url(#linearGradient-2)"></path>
                <path d="M11,13.375 C10.7146154,13.375 10.4352885,13.3474038 10.1653846,13.2949038 C11.3001923,12.9772115 12.6483654,12.1924038 13.2891346,10.9324038 C13.2891346,10.9324038 14.6029808,8.77923077 12.3798077,6.84144231 C12.3798077,6.84144231 12.95125,7.74067308 12.96875,8.64528846 C12.96875,8.64528846 13.1047115,9.83461538 12.0526923,10.5776923 C10.50125,11.6727885 8.08423077,11.1794231 7.05576923,10.8953846 C6.77980769,10.3219231 6.625,9.67913462 6.625,9 C6.625,7.98365385 6.97163462,7.04875 7.55317308,6.30567308 C7.83990385,7.69019231 8.43221154,8.84653846 8.83067308,9.27596154 C9.36173077,9.84740385 10.1438462,10.4545192 11.1480769,10.2041346 C12.1516346,9.95307692 12.35625,8.85528846 12.35625,8.85528846 C12.5783654,7.92173077 12.2620192,6.8125 12.2451923,6.78894231 C12.2283654,6.76538462 12.0775962,6.73980769 12.0775962,6.73980769 C12.2350962,8.21048077 11.8480769,8.86134615 11.8480769,8.86134615 C11.2853846,10.0143269 10.4588462,9.65759615 10.4588462,9.65759615 C9.54009615,9.18913462 9.58317308,7.86923077 9.58317308,7.86923077 C9.55625,6.98413462 9.89346154,5.54240385 10.5436538,4.64855769 C10.69375,4.63307692 10.8458654,4.625 11,4.625 C11.5855769,4.625 12.1442308,4.74009615 12.6550962,4.94942308 C12.1125962,5.40509615 11.2766346,6.25788462 11.2766346,6.25788462 C9.92240385,7.51317308 10.1849038,8.56923077 10.1849038,8.56923077 C10.4002885,9.67846154 11.0720192,8.93134615 11.0720192,8.93134615 C11.7780769,8.20173077 11.7255769,6.74855769 11.7255769,6.74855769 C11.4395192,6.795 11.2584615,6.9525 11.2584615,6.9525 C11.2234615,7.92173077 10.6513462,8.52278846 10.6513462,8.52278846 C10.4299038,8.76778846 10.2724038,8.53423077 10.2724038,8.53423077 C10.1559615,8.35923077 10.3888462,8.23673077 10.3888462,8.23673077 C10.7159615,7.95067308 10.8135577,7.46269231 10.8095192,7.27961538 C10.8048077,7.09586538 10.9024038,7.04605769 10.9024038,7.04605769 C11.3641346,6.69 11.8251923,6.48 11.8251923,6.48 C12.44375,6.16432692 13.5469231,6.11182692 13.5469231,6.11182692 C13.8080769,6.12057692 14.0584615,6.11048077 14.2704808,6.09432692 C14.9576923,6.86701923 15.375,7.88471154 15.375,9 C15.375,11.4163462 13.4163462,13.375 11,13.375 M6,9 C6,11.7614286 8.23857143,14 11,14 C13.7614286,14 16,11.7614286 16,9 C16,6.23857143 13.7614286,4 11,4 C8.23857143,4 6,6.23857143 6,9 Z" id="Page-1" fill="#FFFFFF"></path>
                <path d="M9.93406957e-09,20.0093689 C9.93406957e-09,19.4519098 0.43945835,19 1.00246168,19 L20.9975383,19 C21.5511826,19 22,19.4433532 22,20.0093689 L22,23 L9.11022949,23 L9.93406957e-09,23 L9.93406957e-09,20.0093689 Z" id="Rectangle-3" fill="#FFFFFF"></path>
                <path d="M9.80689664e-09,23.0093689 C9.80689664e-09,22.4519099 0.43945835,22 1.00246168,22 L20.9975383,22 C21.5511826,22 22,22.4433532 22,23.0093689 L22,24.9906311 C22,25.5480902 21.5605417,26 20.9975383,26 L1.00246168,26.0000001 C0.448817388,26.0000001 9.80689664e-09,25.5566469 9.80689664e-09,24.9906312 L9.80689664e-09,23.0093689 Z" id="Rectangle-1" fill="#DCDDDD"></path>
                <path d="M19,23 L20,23 L20,25 L19,25 L19,23 Z M17,23 L18,23 L18,25 L17,25 L17,23 Z M15,23 L16,23 L16,25 L15,25 L15,23 Z M13,23 L14,23 L14,25 L13,25 L13,23 Z" id="Combined-Shape" fill="#F9731E"></path>
                <path d="M3,25 C3.55228475,25 4,24.5522847 4,24 C4,23.4477153 3.55228475,23 3,23 C2.44771525,23 2,23.4477153 2,24 C2,24.5522847 2.44771525,25 3,25 Z" id="Oval" fill="#F8731D"></path>
            </g>
        </g>
    </g>
</svg>